<svg id="e1603270-e04e-4fc2-be37-9d64b0d4ee0d" data-name="Layer 1" xmlns="http://www.w3.org/2000/svg" viewBox="0 0 495.54 613.91"><defs><style>.bafaaa09-41ab-4409-8167-95001311ec44{fill:#fceb48;}.b8e4af8d-1fd1-416a-819b-d9b218201478{fill:#fec210;}</style></defs><title>frame</title><path class="bafaaa09-41ab-4409-8167-95001311ec44" d="M400.82,514.73c-59.14-5.63-118.44-3.81-177.69-3.7-21.79,0-43.58,1.08-65.37,1.89-20.95.78-41.88,1.77-62.82,2.84-4.46.23-5.38-.59-4.6-5.47a321.86,321.86,0,0,0,3.48-34.23c1.23-24.12,1.39-48.27,1.31-72.43-.1-33.79.18-67.59-.36-101.38-.54-33.61-1.71-67.22-3-100.82-1-25.44-2.52-50.86-3-76.32-.06-3.49-.54-7-.84-10.44-.23-2.52.86-3.15,3.28-2.72,38.26,6.73,76.92,5.91,115.51,5.66,24-.16,47.93-.9,71.87-2,26.93-1.24,53.87-2,80.81-2.92,14-.46,27.93-1.19,41.89-1.8,3-.13,4.91.41,3.9,4.22-4.36,16.39-4.49,33.25-5.4,50-1.83,33.79-1.26,67.62-.68,101.41.44,26.31.36,52.63.87,78.93.43,21.47,1.18,42.93,2,64.39q1.33,36.16,3,72.32c.42,9,1.3,17.91,1.76,26.88C407.14,515.23,407,515.24,400.82,514.73ZM100.94,123.67c-4-1-2.9,1.91-2.83,3.85Q99,150.23,100,172.93c2.39,52.4,4,104.82,4.6,157.27.59,55.36,1.49,110.74-2.59,166.05-.23,3-2.57,6.77-.24,9s5.91-.52,9-.52c29.27,0,58.49-2.23,87.75-2.53,65.11-.67,130.24-2.91,195.27,2.32,2.94.24,3.26-.73,3.07-3.28-.72-9.74-1.4-19.48-1.78-29.24-1.35-34.26-2.9-68.52-3.73-102.8q-1.56-63.93-2-127.9c-.33-39.44-.65-78.92,4.47-118.17.22-1.76-.17-2.18-2-2.38-3.4-.39-6.49,1.15-9.81,1.07-10.15-.23-20.29.11-30.43.53-37.93,1.54-75.85,3.34-113.79,4C192.19,127.22,146.52,128.5,100.94,123.67Z" transform="translate(-3.88 -4.81)"/><path class="bafaaa09-41ab-4409-8167-95001311ec44" d="M65.46,445.85a127.47,127.47,0,0,0-9.13-39.08c-5.58-13.93-12.63-27.16-19.56-40.43-13.55-26-18.42-53.41-16.1-82.61A295,295,0,0,1,35,212c5.07-15,10.87-29.68,17.24-44.16.83-1.9,2.17-3.72,2-6.24-4.22-.19-8.16,1.43-12.37,1-14.73-1.48-23.06-10.7-28.91-23.11C6,124.84,9.87,103.86,22,94.09,39.51,80,64.12,81.3,78.5,104.63c8.53,13.86,8.87,29.05,8,44.43-1,17.6-2.41,35.17-3.53,52.76-1.31,20.58-2.83,41.15-3.63,61.75-.63,16.31-.28,32.65-.42,49-.27,31.18,2.57,62.13,5.76,93.1,2.62,25.45,7.78,50.68,7.22,76.43-.29,13.39-4.41,25.25-14.45,34.46-14,12.86-32.6,12.43-47.83-.87-14.72-12.85-21.4-43.74-13.42-61.51,8.9-19.8,26.81-21,42.59-12.77A78.41,78.41,0,0,1,65.46,445.85Zm12-310.08c.59-6.16-1-17.86-8.14-28.3-5.95-8.74-13.88-13.76-24.86-12.64-9.66,1-17.94,4.65-22.14,13.92-5.81,12.81-4.05,24.89,4.67,36.06,7.63,9.76,25.71,13,34.64-1.87,6.56-10.89-.28-26.29-12.8-28.62-4.72-.87-8.93,2.13-10.25,7.35-1.25,4.91,2.13,6.45,5.74,7.78a54.13,54.13,0,0,1,5.16,1.8c2.23,1.1,2.93,3.1,2.35,5.48s-2.32,3-4.53,3.09c-3.16.13-5.81-1.28-8.51-2.58C30.8,133.4,27.36,126.8,29.19,119A19.29,19.29,0,0,1,46,104.79c14.78-1,33.24,17.85,26.24,37.83-6.56,18.72-14.93,36.67-22.06,55.14-13.53,35-21.51,70.88-20.31,108.65A120.79,120.79,0,0,0,39.63,350c5.74,13.67,13.28,26.47,19.68,39.81A165.48,165.48,0,0,1,74.93,481c-.77,7-3.58,13.26-9.1,17.8-7,5.75-14.93,6.36-23,2.6A23.13,23.13,0,0,1,29.15,482c-1-9.44,2.74-14.28,11.43-16.53,5.26-1.35,9.47-.23,9.79,3.07.5,5.08-3.56,5.6-7.27,6.26-2.62.46-4.8,1.44-4.93,4.64-.26,6.46,5.46,13.53,11.65,14.34,7.69,1,13.39-3.05,15.14-10.43,1.63-6.87,1-13.54-.86-20.23-2.81-10.37-11.84-17.13-23-17.18-8.63,0-15.66,6.18-17.86,17.2-3.42,17.06.81,32.48,12.54,45.33,9.18,10.06,23.21,11,33.87,2.47,11.54-9.24,13.85-22.35,13.07-36.06-1.42-25.26-5.13-50.3-8.1-75.39-2.78-23.49-4.27-47.05-5.24-70.61-1.32-32,.89-63.91,1.86-95.86.35-11.13,1.17-22.26,2.1-33.36C74.94,180.4,76.55,161.17,77.41,135.77Z" transform="translate(-3.88 -4.81)"/><path class="bafaaa09-41ab-4409-8167-95001311ec44" d="M433.89,444c6.19-3.41,11.69-6.11,18.33-6.38,24.81-1,49.68,26.8,35,55.92-13.12,26.09-56,31.54-73.2,11.09-3.68-4.39-6-9.15-6.16-14.87-.52-18.34,1.1-36.56,2.58-54.82q2.64-32.56,4.75-65.19c2.06-31,2.16-61.92,1.41-92.87-.5-20.27-3.1-40.44-5.21-60.63-2.71-25.78-8.11-51.35-7.38-77.42.58-20.52,12-33.54,30.33-36.6,17.57-2.94,31.94,3.62,42.76,17.94,12.82,17,9.87,45.91-4.93,60.32-6.66,6.48-14.62,8.22-23.46,7-2.94-.41-5.81-1.26-9.14-2,.18,4.45,2.36,8.06,3.76,11.8,8.65,23.08,17,46.26,22.32,70.4,5.95,27,5.8,53.67-3,80.24-6.25,18.82-14.68,36.81-20.5,55.76a242.52,242.52,0,0,0-8.24,36.49A32.88,32.88,0,0,0,433.89,444ZM417,480c-.57,9.24.56,17.49,9.53,23,14.06,8.68,33.78,4.48,43-2.75,9.85-7.67,14.84-18.4,12-30.93-2.63-11.44-11-18.22-22.11-21.68-9.93-3.1-21.43,2.44-26,12.6-4.24,9.5-1.21,19.76,8.07,25,5.88,3.36,12.4,5.31,19,1.36a8.36,8.36,0,0,0,4.16-9.41c-.77-3.65-4-4.67-7.2-5.2-1.79-.29-3.66-.11-5.48-.35-2.63-.34-4.36-2-4.48-4.58-.14-2.91,2-4.07,4.54-4.31a32,32,0,0,1,6.49.05c8.6,1,14.87,6.57,15.89,14.05,1,7.14-3.89,15.69-10.68,18.75-16.33,7.37-38.2-3.48-40.74-21.17-2.6-18.17,1.27-36.13,4.93-53.88,4.5-21.79,13.19-42.23,21.44-62.76,10.47-26,13.6-52.81,8.75-80.33-4.52-25.67-13.36-50.14-22.55-74.45-5.24-13.86-10.73-27.67-14-42.13-4.2-18.53,5.24-33.17,22.33-35.69,14.55-2.14,24.89,7.95,23,22.43-.93,7-8.27,13.84-15.36,14.2-2.58.13-4.72-.56-5.39-3.34-.74-3.1,1.06-4.64,3.76-5.47a19.33,19.33,0,0,0,2.87-.82c3.78-1.79,5-5,5.13-9,.15-3.64-1.25-6.42-4.57-7.52-9.31-3.07-20.06.42-22.58,11-1.54,6.48-.27,12.71,1.83,18.64,2.46,6.93,8,11.11,15.23,12.23,7.6,1.17,14.92,1,20.21-6.26,11.61-15.95,12-42.5-9-55.78-12.11-7.66-29.05-5.9-38.61,4.23-7.5,8-7.51,18.14-7.05,27.8,1.16,24.43,5.14,48.61,8,72.89q4.14,35,5.31,70.13c1.05,32.3-1.13,64.56-2.93,96.81-.77,13.77-1.95,27.53-3.18,41.28C419,445.78,417.64,462.85,417,480Z" transform="translate(-3.88 -4.81)"/><path class="bafaaa09-41ab-4409-8167-95001311ec44" d="M132.41,69.38c10.93-4.78,21.84-9.62,32.8-14.33,27.49-11.79,55.26-22.63,85.87-22.14,17.84.28,34.82,5.3,51.63,10.72,24.12,7.78,47.22,18.14,70.52,28a24.88,24.88,0,0,0,2.49.71c-.47-2.69-.84-4.91-1.26-7.12C371.74,51,380.89,33.78,395.1,26.26c14.55-7.71,30.07-3.43,40.56,6.37,6.23,5.83,7.3,14.08,8.72,21.89,4.08,22.38-10.83,46.27-32.7,52.45-9.05,2.56-18.29.72-27.25-.68C361.6,102.73,339,97.8,316,95.21c-35.6-4-71.24-5.53-107.1-2.72-30.89,2.42-61.38,7.76-92.14,11-9.4,1-19,1.69-28.33-.65C77.29,100,69.87,92.54,65.35,82.35c-6.64-15-7.37-30.25-.9-45.56C70.2,23.17,81,15.53,95.06,13.14s25.93,2.35,34.63,14c6.77,9.09,5.66,19.53,4.88,29.82A71.35,71.35,0,0,1,132.41,69.38ZM70,58.2a47.86,47.86,0,0,0,0,5.49c2.19,18.12,10.7,32.17,32.6,31.25,15-.64,29.82-2.65,44.62-4.81,30-4.36,60-8.17,90.37-8.3,14.14,0,28.28-.19,42.43.8,18.43,1.3,36.81,2.73,55,5.78,20,3.34,40,6.77,60.08,9.88,6.76,1,13.49,1,19.87-2.69C433.58,84.82,436.46,71,434.54,53.37c-.81-7.53-3.62-14.26-11.16-18.38-17.94-9.81-37.36,4.28-39.44,21.66-1.55,12.9,5.44,22.32,17.32,24.55a8.18,8.18,0,0,0,5.3-.66c7.27-3.47,13.07-13.45,12.27-21.35-.37-3.7-1.85-6.73-5.49-8.29-4.1-1.76-6.43-.63-7.28,3.71-.52,2.6-.72,5.27-1.1,7.91-.35,2.39-1.54,4.08-4.12,4.25-2.94.2-4.22-1.73-4.65-4.23-.9-5.1.32-9.86,2.4-14.54a11.39,11.39,0,0,1,10-7.13c8.9-.88,18.11,6.47,19.28,15.32,1.59,12-3.22,21.58-11.88,29.27a19.4,19.4,0,0,1-19.09,4.48,161.19,161.19,0,0,1-18.5-6C349.86,71.91,321.62,59.18,292,50c-14.53-4.52-29.42-7.73-44.6-7.78-14.69,0-29.08,3.26-43.07,7.79-19,6.15-37.31,14.23-55.55,22.4-11.84,5.31-23.52,11.11-36.24,14.06C97.49,89.93,86,84.28,81.15,70.74c-2.79-7.78-2-15.69,1.37-23.34a16.68,16.68,0,0,1,21.11-9.16c7,2.49,11.91,13.39,9.57,20.89-.69,2.2-2,3.51-4.22,3.52a4.34,4.34,0,0,1-4.63-3.74c-.35-1.94-.17-4-.35-6-.26-2.87-1.43-5.2-4.48-5.89S93.91,47,92,49.57c-4.18,5.58-3.77,17.63.47,23.15s10.22,5.78,16.29,4.88c6.82-1,11.52-5.06,13.92-11.51,1.74-4.69,3.12-9.63,3.06-14.59-.08-6.86.68-14-4.41-19.92C109.56,17.81,92.74,19.82,80.76,29.8,72.17,37,69.53,47.19,70,58.2Z" transform="translate(-3.88 -4.81)"/><path class="bafaaa09-41ab-4409-8167-95001311ec44" d="M126.08,547.63c2.15,5.41,4.76,9.18,5,13.81.55,12.25-5.16,20.85-15.24,27.23-13.53,8.55-30.57,8.31-42.65-.8A19.46,19.46,0,0,1,67,580.74c-6-13-8.28-26.39-3.35-40.22,5.75-16.15,21.35-25.16,38.7-23.39,24.35,2.48,48.22,8,72.47,11,16.5,2,33,3.84,49.66,4.44,16.44.6,32.9,1.24,49.37.16,17.44-1.14,34.71-3.57,52-6.24,22-3.39,43.58-10.1,66.13-8.69,13.63.85,26.79,3.88,37.19,13.64,11.67,11,13.06,25,3.94,38.24-9.68,14-23,21.78-40.12,22.83a24.22,24.22,0,0,1-25.12-20.42A37.28,37.28,0,0,1,370,551.61c.42-1,1.61-2.14.64-3.18-1.13-1.21-2.48-.07-3.69.33C349,554.7,332.64,564,315.82,572.38c-24,11.88-48.67,20.78-76.15,18.38-22-1.91-42.7-8.35-62.34-18.31-12.75-6.47-25.41-13.15-38.19-19.56C135.32,551,131.21,549.67,126.08,547.63Zm-55,8.43c0,2.16-.33,4.38.05,6.48,2.45,13.76,5,19.17,17.15,22.3,11.31,2.91,21.25-.91,28.94-9.27,6.88-7.49,6.23-16.59-.85-23.75a28.48,28.48,0,0,0-14.15-8c-7.4-1.67-11.6-.29-14.78,4.89a15.16,15.16,0,0,0,1.36,17.7c3.73,4.37,7.53,4,10.14-1.1a48.67,48.67,0,0,1,2.45-4.9c1.21-1.77,3-2.74,5.19-1.73a4.84,4.84,0,0,1,3.06,4.73c-.08,5-6.37,13.19-11.35,15-5.2,1.86-12.78-.65-16.54-5.59a31.64,31.64,0,0,1-3.2-5c-8.47-17.1,4.23-35.29,20.63-34.23,18,1.18,34.57,6.15,50.57,14,19.07,9.43,37.23,20.72,57.68,27.3,28.26,9.1,56.16,9.62,84-1.82,17.9-7.36,34.72-16.92,52.23-25,17.68-8.21,35.73-14.54,55.88-11.28,8.51,1.38,15.8,6.41,17.25,13.61,1.82,9-4.41,20.78-12.9,24.35-8.77,3.69-18.46-1.36-19.48-10.14-.38-3.2.68-5.75,3.95-6.54s4.85,1.47,5.22,4.08c.59,4.22,3.38,4,6.24,3.59,3.91-.58,7.52-5.79,7.82-11.11.26-4.45-2.38-6.77-6.29-7.78-7.39-1.91-14.62-1.17-19.93,4.53-5.57,6-5.72,13.7-3.52,21.19s6.34,10.27,14,10.28c13.22,0,23.56-5.55,31.73-16,9.33-11.89,7.48-24.26-5.4-32.13a43.17,43.17,0,0,0-7.22-3.38c-15.86-6-32.05-4.76-48.25-1.94-29.33,5.1-58.49,11-88.35,12.74-28.87,1.66-57.57.09-86.21-2.77-25-2.5-49.63-7.59-74.45-11.38-4.44-.68-8.93-.95-13.41-1.31C79.75,525,69.7,540.72,71.07,556.06Z" transform="translate(-3.88 -4.81)"/><path class="b8e4af8d-1fd1-416a-819b-d9b218201478" d="M441,433c5.84-1.47,11.25-2.87,16.89-3.15,21.62-1.1,34.32,10,39.1,29.69,3.43,14.12,4.11,27.84-3.94,40.84-6.23,10.05-15.58,16.08-26.12,20.57a75.65,75.65,0,0,1-21,5.74c-2.91.33-3,1-2.27,3.58,3.07,11.33,4.59,22.78,1.5,34.44-4.74,17.87-17.68,26.85-34.28,31.87a58.14,58.14,0,0,1-18.63,2.65c-14.93-.51-25.28-8.59-30.31-22.88-1.66-4.73-2-9.7-3.12-15-9.29,6.86-18.11,13.59-27.48,19.55-7.74,4.93-15.38,10-23.4,14.51-16.24,9.13-32.85,17.09-51.07,21.48-10.92,2.62-21.77,2.37-32.62.3C197,611.92,174.87,597.23,154.75,579a216,216,0,0,1-18.45-19.43c-.77,5.64.09,10.71-1.11,15.74-3.72,15.58-14.87,22.58-29.16,25.44a89.48,89.48,0,0,1-16.19,1.53c-5.26.06-10.75-2.59-15.82-4.8-12.07-5.27-16.76-15.82-19-28-2-10.81-1-21.49,1.39-32.09.52-2.38.45-3.08-2.4-3.84-24-6.34-41.45-19.87-47.3-45.15-3-12.84-2.75-25.78,1.95-38.27,7.58-20.14,22.54-24.52,41.48-21.8,1.91.28,3.77.91,6.6,1.6a278.76,278.76,0,0,1-19.61-30.28C23.28,374.91,13,348.84,8,320.8-1.51,267.35,11.63,219,41.18,174.44c.72-1.08,1.64-2,2.44-3.06s1.38-1.84,2.45-3.27c-3.76-.23-7.18-.05-10.44-.71C18,163.85,7.87,152.53,5.06,134.63c-1.41-9-1.92-18.4.57-26.54C9.94,94,18.93,82.65,34.06,77.78c4.76-1.54,9.45-3.17,14.5-3,3,.1,4.21-.87,3.75-4a59.72,59.72,0,0,1,1.47-23.51C59.19,27,71,11.76,92.94,6.92c7.21-1.59,14.4-3,21.7-1.45,13.85,2.87,20.53,12.82,24.25,25.43,2.07,7,2.58,14.31,3.09,22.19A121.62,121.62,0,0,1,178,31a184.67,184.67,0,0,1,49-12.21c15.28-1.76,30.6-1.69,45.87-.86,17.18.93,33.53,6,49.51,12.21,14.49,5.62,27.63,13.74,40.44,22.32,3.57,2.4,3.37.21,4.11-1.58a82.73,82.73,0,0,1,14.34-23.74C391,16.31,403,12.69,417,15.71,446.23,22,453.38,47,451.37,69.29c-.63,6.93-1.58,13.88-4,20.46-1.14,3.13,1.05,2.85,2.59,3.42a83,83,0,0,1,25.66,14.9c25.46,21.88,19.4,62.05,0,79.61A35.22,35.22,0,0,1,465,194c-3.72,1.51-7.69,1.9-11.56,2.86,31.46,25.86,41.66,59.93,39.71,99-.8,16-5.94,30.88-11.06,45.71-10.68,30.94-24.94,60.32-40.25,89.21A19.38,19.38,0,0,0,441,433Zm-40.19,81.78c6.15.51,6.32.5,6-5.68-.46-9-1.34-17.91-1.76-26.88q-1.65-36.15-3-72.32c-.79-21.46-1.54-42.92-2-64.39-.51-26.3-.43-52.62-.87-78.93-.58-33.79-1.15-67.62.68-101.41.91-16.77,1-33.63,5.4-50,1-3.81-.94-4.35-3.9-4.22-14,.61-27.92,1.34-41.89,1.8-26.94.91-53.88,1.68-80.81,2.92-23.94,1.11-47.91,1.85-71.87,2-38.59.25-77.25,1.07-115.51-5.66-2.42-.43-3.51.2-3.28,2.72.3,3.48.78,7,.84,10.44.43,25.46,2,50.88,3,76.32,1.25,33.6,2.42,67.21,3,100.82.54,33.79.26,67.59.36,101.38.08,24.16-.08,48.31-1.31,72.43a321.86,321.86,0,0,1-3.48,34.23c-.78,4.88.14,5.7,4.6,5.47,20.94-1.07,41.87-2.06,62.82-2.84,21.79-.81,43.58-1.85,65.37-1.89C282.38,510.92,341.68,509.1,400.82,514.73ZM65.46,445.85a78.41,78.41,0,0,0-6.64-4.47c-15.78-8.19-33.69-7-42.59,12.77-8,17.77-1.3,48.66,13.42,61.51,15.23,13.3,33.81,13.73,47.83.87,10-9.21,14.16-21.07,14.45-34.46.56-25.75-4.6-51-7.22-76.43-3.19-31-6-61.92-5.76-93.1.14-16.32-.21-32.66.42-49,.8-20.6,2.32-41.17,3.63-61.75,1.12-17.59,2.57-35.16,3.53-52.76.84-15.38.5-30.57-8-44.43C64.12,81.3,39.51,80,22,94.09c-12.15,9.77-16,30.75-9.09,45.39,5.85,12.41,14.18,21.63,28.91,23.11,4.21.42,8.15-1.2,12.37-1,.22,2.52-1.12,4.34-2,6.24C45.89,182.3,40.09,197,35,212a295,295,0,0,0-14.35,71.75c-2.32,29.2,2.55,56.64,16.1,82.61,6.93,13.27,14,26.5,19.56,40.43A127.47,127.47,0,0,1,65.46,445.85ZM433.89,444a32.88,32.88,0,0,1,0-3.84,242.52,242.52,0,0,1,8.24-36.49c5.82-18.95,14.25-36.94,20.5-55.76,8.83-26.57,9-53.25,3-80.24-5.32-24.14-13.67-47.32-22.32-70.4-1.4-3.74-3.58-7.35-3.76-11.8,3.33.75,6.2,1.6,9.14,2,8.84,1.23,16.8-.51,23.46-7C487,166,490,137.09,477.13,120.13c-10.82-14.32-25.19-20.88-42.76-17.94-18.32,3.06-29.75,16.08-30.33,36.6-.73,26.07,4.67,51.64,7.38,77.42,2.11,20.19,4.71,40.36,5.21,60.63.75,31,.65,61.9-1.41,92.87q-2.16,32.61-4.75,65.19c-1.48,18.26-3.1,36.48-2.58,54.82.17,5.72,2.48,10.48,6.16,14.87,17.17,20.45,60.08,15,73.2-11.09,14.65-29.12-10.22-56.9-35-55.92C445.58,437.85,440.08,440.55,433.89,444ZM132.41,69.38A71.35,71.35,0,0,0,134.57,57c.78-10.29,1.89-20.73-4.88-29.82-8.7-11.69-20.56-16.44-34.63-14s-24.86,10-30.61,23.65c-6.47,15.31-5.74,30.59.9,45.56C69.87,92.54,77.29,100,88.42,102.8c9.33,2.34,18.93,1.63,28.33.65,30.76-3.2,61.25-8.54,92.14-11,35.86-2.81,71.5-1.29,107.1,2.72,23,2.59,45.61,7.52,68.44,11.08,9,1.4,18.2,3.24,27.25.68,21.87-6.18,36.78-30.07,32.7-52.45-1.42-7.81-2.49-16.06-8.72-21.89-10.49-9.8-26-14.08-40.56-6.37C380.89,33.78,371.74,51,374.46,65.21c.42,2.21.79,4.43,1.26,7.12a24.88,24.88,0,0,1-2.49-.71c-23.3-9.85-46.4-20.21-70.52-28-16.81-5.42-33.79-10.44-51.63-10.72-30.61-.49-58.38,10.35-85.87,22.14C154.25,59.76,143.34,64.6,132.41,69.38Zm-6.33,478.25c5.13,2,9.24,3.35,13.06,5.26,12.78,6.41,25.44,13.09,38.19,19.56,19.64,10,40.3,16.4,62.34,18.31,27.48,2.4,52.17-6.5,76.15-18.38C332.64,564,349,554.7,366.93,548.76c1.21-.4,2.56-1.54,3.69-.33,1,1-.22,2.16-.64,3.18a37.28,37.28,0,0,0-2.11,20.53A24.22,24.22,0,0,0,393,592.56c17.11-1,30.44-8.81,40.12-22.83,9.12-13.21,7.73-27.29-3.94-38.24-10.4-9.76-23.56-12.79-37.19-13.64-22.55-1.41-44.15,5.3-66.13,8.69-17.26,2.67-34.53,5.1-52,6.24-16.47,1.08-32.93.44-49.37-.16-16.62-.6-33.16-2.4-49.66-4.44-24.25-3-48.12-8.57-72.47-11-17.35-1.77-32.95,7.24-38.7,23.39C58.75,554.35,61,567.78,67,580.74a19.46,19.46,0,0,0,6.13,7.13c12.08,9.11,29.12,9.35,42.65.8,10.08-6.38,15.79-15,15.24-27.23C130.84,556.81,128.23,553,126.08,547.63Z" transform="translate(-3.88 -4.81)"/><path class="b8e4af8d-1fd1-416a-819b-d9b218201478" d="M77.41,135.77c-.86,25.4-2.47,44.63-4.09,63.85-.93,11.1-1.75,22.23-2.1,33.36-1,32-3.18,63.9-1.86,95.86,1,23.56,2.46,47.12,5.24,70.61,3,25.09,6.68,50.13,8.1,75.39.78,13.71-1.53,26.82-13.07,36.06-10.66,8.54-24.69,7.59-33.87-2.47C24,495.58,19.8,480.16,23.22,463.1c2.2-11,9.23-17.23,17.86-17.2,11.18.05,20.21,6.81,23,17.18,1.81,6.69,2.49,13.36.86,20.23-1.75,7.38-7.45,11.43-15.14,10.43-6.19-.81-11.91-7.88-11.65-14.34.13-3.2,2.31-4.18,4.93-4.64,3.71-.66,7.77-1.18,7.27-6.26-.32-3.3-4.53-4.42-9.79-3.07-8.69,2.25-12.39,7.09-11.43,16.53a23.13,23.13,0,0,0,13.72,19.48c8,3.76,16,3.15,23-2.6,5.52-4.54,8.33-10.79,9.1-17.8a165.48,165.48,0,0,0-15.62-91.27c-6.4-13.34-13.94-26.14-19.68-39.81a120.79,120.79,0,0,1-9.77-43.55c-1.2-37.77,6.78-73.62,20.31-108.65,7.13-18.47,15.5-36.42,22.06-55.14,7-20-11.46-38.82-26.24-37.83A19.29,19.29,0,0,0,29.19,119c-1.83,7.81,1.61,14.41,9.55,18.25,2.7,1.3,5.35,2.71,8.51,2.58,2.21-.1,4-.74,4.53-3.09s-.12-4.38-2.35-5.48a54.13,54.13,0,0,0-5.16-1.8c-3.61-1.33-7-2.87-5.74-7.78,1.32-5.22,5.53-8.22,10.25-7.35,12.52,2.33,19.36,17.73,12.8,28.62-8.93,14.84-27,11.63-34.64,1.87-8.72-11.17-10.48-23.25-4.67-36.06,4.2-9.27,12.48-12.93,22.14-13.92,11-1.12,18.91,3.9,24.86,12.64C76.38,117.91,78,129.61,77.41,135.77Z" transform="translate(-3.88 -4.81)"/><path class="b8e4af8d-1fd1-416a-819b-d9b218201478" d="M417,480c.69-17.1,2.06-34.17,3.58-51.24,1.23-13.75,2.41-27.51,3.18-41.28,1.8-32.25,4-64.51,2.93-96.81q-1.14-35.15-5.31-70.13c-2.87-24.28-6.85-48.46-8-72.89-.46-9.66-.45-19.85,7.05-27.8,9.56-10.13,26.5-11.89,38.61-4.23,21,13.28,20.6,39.83,9,55.78-5.29,7.27-12.61,7.43-20.21,6.26-7.25-1.12-12.77-5.3-15.23-12.23-2.1-5.93-3.37-12.16-1.83-18.64,2.52-10.6,13.27-14.09,22.58-11,3.32,1.1,4.72,3.88,4.57,7.52-.16,4-1.35,7.19-5.13,9a19.33,19.33,0,0,1-2.87.82c-2.7.83-4.5,2.37-3.76,5.47.67,2.78,2.81,3.47,5.39,3.34,7.09-.36,14.43-7.15,15.36-14.2,1.91-14.48-8.43-24.57-23-22.43-17.09,2.52-26.53,17.16-22.33,35.69,3.27,14.46,8.76,28.27,14,42.13,9.19,24.31,18,48.78,22.55,74.45,4.85,27.52,1.72,54.31-8.75,80.33-8.25,20.53-16.94,41-21.44,62.76-3.66,17.75-7.53,35.71-4.93,53.88,2.54,17.69,24.41,28.54,40.74,21.17,6.79-3.06,11.66-11.61,10.68-18.75-1-7.48-7.29-13.09-15.89-14.05a32,32,0,0,0-6.49-.05c-2.51.24-4.68,1.4-4.54,4.31.12,2.61,1.85,4.24,4.48,4.58,1.82.24,3.69.06,5.48.35,3.23.53,6.43,1.55,7.2,5.2a8.36,8.36,0,0,1-4.16,9.41c-6.57,3.95-13.09,2-19-1.36-9.28-5.29-12.31-15.55-8.07-25,4.53-10.16,16-15.7,26-12.6,11.11,3.46,19.48,10.24,22.11,21.68,2.88,12.53-2.11,23.26-12,30.93-9.27,7.23-29,11.43-43,2.75C417.51,497.44,416.38,489.19,417,480Z" transform="translate(-3.88 -4.81)"/><path class="b8e4af8d-1fd1-416a-819b-d9b218201478" d="M70,58.2c-.45-11,2.19-21.24,10.78-28.4,12-10,28.8-12,40.52,1.78,5.09,6,4.33,13.06,4.41,19.92.06,5-1.32,9.9-3.06,14.59-2.4,6.45-7.1,10.5-13.92,11.51-6.07.9-11.94.77-16.29-4.88S87.77,55.15,92,49.57c2-2.61,4.61-3.19,7.57-2.52s4.22,3,4.48,5.89c.18,2,0,4,.35,6A4.34,4.34,0,0,0,109,62.65c2.26,0,3.53-1.32,4.22-3.52,2.34-7.5-2.59-18.4-9.57-20.89A16.68,16.68,0,0,0,82.52,47.4C79.11,55.05,78.36,63,81.15,70.74,86,84.28,97.49,89.93,112.54,86.44c12.72-3,24.4-8.75,36.24-14.06C167,64.21,185.29,56.13,204.33,50c14-4.53,28.38-7.83,43.07-7.79,15.18.05,30.07,3.26,44.6,7.78,29.62,9.21,57.86,21.94,86.4,33.92a161.19,161.19,0,0,0,18.5,6A19.4,19.4,0,0,0,416,85.46c8.66-7.69,13.47-17.25,11.88-29.27-1.17-8.85-10.38-16.2-19.28-15.32a11.39,11.39,0,0,0-10,7.13c-2.08,4.68-3.3,9.44-2.4,14.54.43,2.5,1.71,4.43,4.65,4.23,2.58-.17,3.77-1.86,4.12-4.25.38-2.64.58-5.31,1.1-7.91.85-4.34,3.18-5.47,7.28-3.71,3.64,1.56,5.12,4.59,5.49,8.29.8,7.9-5,17.88-12.27,21.35a8.18,8.18,0,0,1-5.3.66C389.38,79,382.39,69.55,383.94,56.65,386,39.27,405.44,25.18,423.38,35c7.54,4.12,10.35,10.85,11.16,18.38,1.92,17.61-1,31.45-19.52,42.23-6.38,3.71-13.11,3.74-19.87,2.69-20-3.11-40.06-6.54-60.08-9.88-18.23-3-36.61-4.48-55-5.78-14.15-1-28.29-.85-42.43-.8-30.36.13-60.39,3.94-90.37,8.3-14.8,2.16-29.62,4.17-44.62,4.81C80.71,95.86,72.2,81.81,70,63.69A47.86,47.86,0,0,1,70,58.2Z" transform="translate(-3.88 -4.81)"/><path class="b8e4af8d-1fd1-416a-819b-d9b218201478" d="M71.07,556.06c-1.37-15.34,8.68-31.09,29.25-29.44,4.48.36,9,.63,13.41,1.31,24.82,3.79,49.46,8.88,74.45,11.38,28.64,2.86,57.34,4.43,86.21,2.77,29.86-1.71,59-7.64,88.35-12.74,16.2-2.82,32.39-4,48.25,1.94a43.17,43.17,0,0,1,7.22,3.38c12.88,7.87,14.73,20.24,5.4,32.13-8.17,10.41-18.51,16-31.73,16-7.68,0-11.84-2.89-14-10.28s-2.05-15.21,3.52-21.19c5.31-5.7,12.54-6.44,19.93-4.53,3.91,1,6.55,3.33,6.29,7.78-.3,5.32-3.91,10.53-7.82,11.11-2.86.41-5.65.63-6.24-3.59-.37-2.61-2.1-4.83-5.22-4.08s-4.33,3.34-3.95,6.54c1,8.78,10.71,13.83,19.48,10.14,8.49-3.57,14.72-15.33,12.9-24.35-1.45-7.2-8.74-12.23-17.25-13.61-20.15-3.26-38.2,3.07-55.88,11.28-17.51,8.13-34.33,17.69-52.23,25-27.81,11.44-55.71,10.92-84,1.82-20.45-6.58-38.61-17.87-57.68-27.3-16-7.9-32.57-12.87-50.57-14-16.4-1.06-29.1,17.13-20.63,34.23a31.64,31.64,0,0,0,3.2,5c3.76,4.94,11.34,7.45,16.54,5.59,5-1.77,11.27-10,11.35-15a4.84,4.84,0,0,0-3.06-4.73c-2.22-1-4,0-5.19,1.73a48.67,48.67,0,0,0-2.45,4.9c-2.61,5.06-6.41,5.47-10.14,1.1a15.16,15.16,0,0,1-1.36-17.7c3.18-5.18,7.38-6.56,14.78-4.89a28.48,28.48,0,0,1,14.15,8c7.08,7.16,7.73,16.26.85,23.75-7.69,8.36-17.63,12.18-28.94,9.27-12.18-3.13-14.7-8.54-17.15-22.3C70.74,560.44,71.07,558.22,71.07,556.06Z" transform="translate(-3.88 -4.81)"/></svg>