<?xml version="1.0" encoding="utf-8"?>
<!-- Generator: Adobe Illustrator 24.0.3, SVG Export Plug-In . SVG Version: 6.00 Build 0)  -->
<svg version="1.1" id="e1603270-e04e-4fc2-be37-9d64b0d4ee0d"
	 xmlns="http://www.w3.org/2000/svg" xmlns:xlink="http://www.w3.org/1999/xlink" x="0px" y="0px" viewBox="0 0 495.5 613.9"
	 style="enable-background:new 0 0 495.5 613.9;" xml:space="preserve">
<style type="text/css">
	.st0{fill:#FEC210;}
	.st1{fill:#FCEB48;}
</style>
<path class="st0" d="M493.1,454.8c-4.8-19.7-17.5-30.8-39.1-29.7c-5.7,0.2-11.1,1.6-16.9,3.1c0.3-0.8,0.5-1.5,0.8-2.2
	c15.3-28.9,29.5-58.3,40.2-89.2c5.2-14.8,10.3-29.7,11.1-45.7c2-39.1-8.2-73.1-39.7-99c3.9-1,7.9-1.4,11.6-2.9
	c3.9-1.4,7.5-3.6,10.6-6.3c19.4-17.6,25.5-57.7,0-79.6c-7.6-6.5-16.3-11.5-25.7-14.9c-1.6-0.6-3.7-0.3-2.6-3.4
	c2.4-6.6,3.4-13.6,4-20.5c2-22.3-5.2-47.3-34.4-53.6c-14-3-26,0.6-35.7,11.4c-6,7-10.9,15-14.3,23.7c-0.7,1.8-0.5,4-4.1,1.6
	C346.1,39,333,30.9,318.5,25.3c-16-6.2-32.3-11.3-49.5-12.2c-15.3-0.8-30.6-0.9-45.9,0.9c-16.8,1.8-33.3,5.9-49,12.2
	c-13.2,5.2-25.4,12.7-36,22.1c-0.5-7.9-1-15.2-3.1-22.2c-3.7-12.6-10.3-22.5-24.2-25.4c-7.3-1.6-14.5-0.2-21.7,1.4
	C67.1,7,55.3,22.2,50,42.5c-2.1,7.7-2.6,15.6-1.5,23.5c0.4,3.1-0.8,4.1-3.8,4c-5-0.2-9.7,1.5-14.5,3C15.1,77.8,6.1,89.2,1.8,103.3
	c-2.5,8.1-2,17.5-0.6,26.5C4,147.7,14.1,159,31.8,162.5c3.2,0.6,6.6,0.5,10.4,0.7c-1.1,1.5-1.7,2.2-2.5,3.3c-0.8,1.1-1.7,2-2.4,3.1
	C7.7,214.2-5.4,262.6,4.1,316c5,28,15.3,54.1,29.2,78.8c5.9,10.5,12.4,20.6,19.6,30.3c-2.8-0.7-4.7-1.3-6.6-1.6
	c-19-2.7-33.9,1.7-41.5,21.8c-4.7,12.5-4.9,25.5-1.9,38.3c5.8,25.2,23.3,38.8,47.3,45.1c2.9,0.7,2.9,1.4,2.4,3.8
	c-2.4,10.6-3.4,21.3-1.4,32.1c2.2,12.2,6.9,22.7,19,28c5,2.2,10.5,4.9,15.8,4.8c5.4,0,10.9-0.5,16.2-1.5
	c14.3-2.8,25.5-9.8,29.2-25.4c1.2-5,0.3-10.1,1.1-15.7c5.7,6.8,11.9,13.3,18.4,19.4c20.1,18.2,42.2,32.9,69.5,38.2
	c10.8,2.1,21.7,2.3,32.6-0.3c18.2-4.4,34.9-12.4,51.1-21.5c8-4.5,15.7-9.6,23.4-14.5c9.4-5.9,18.2-12.6,27.5-19.5
	c1.1,5.3,1.4,10.3,3.1,15c5,14.3,15.4,22.4,30.3,22.9c6.3,0.1,12.6-0.8,18.6-2.7c16.6-5.1,29.6-14,34.3-31.9
	c3.1-11.6,1.6-23.1-1.5-34.4c-0.7-2.6-0.6-3.3,2.3-3.6c7.2-0.9,14.3-2.8,21-5.7c10.5-4.5,19.9-10.6,26.1-20.6
	C497.2,482.6,496.5,468.9,493.1,454.8z M390,499.7c-65.1-5.2-130.2-3-195.3-2.3c-29.2,0.3-58.4,2.5-87.7,2.5c-3.1,0-6.6,2.7-9,0.5
	s0-6,0.2-9c4.1-55.3,3.2-110.6,2.6-166c-0.6-52.5-2.2-104.9-4.6-157.3c-0.7-15.1-1.3-30.3-1.9-45.4c-0.1-1.9-1.2-4.8,2.8-3.8
	c45.5,4.8,91.2,3.5,137,2.6c37.9-0.7,75.9-2.5,113.8-4c10.1-0.4,20.3-0.7,30.4-0.5c3.3,0.1,6.4-1.5,9.8-1.1c1.8,0.2,2.2,0.6,2,2.4
	c-5.1,39.3-4.8,78.8-4.5,118.2c0.3,42.6,1,85.3,2,127.9c0.8,34.3,2.3,68.5,3.7,102.8c0.4,9.7,1.1,19.5,1.8,29.2
	C393.3,499,392.9,499.9,390,499.7z"/>
<title>frame</title>
<path class="st1" d="M396.9,509.9c-59.1-5.6-118.4-3.8-177.7-3.7c-21.8,0-43.6,1.1-65.4,1.9c-20.9,0.8-41.9,1.8-62.8,2.8
	c-4.5,0.2-5.4-0.6-4.6-5.5c1.8-11.3,2.9-22.8,3.5-34.2c1.2-24.1,1.4-48.3,1.3-72.4c-0.1-33.8,0.2-67.6-0.4-101.4
	c-0.5-33.6-1.7-67.2-3-100.8c-1-25.4-2.5-50.9-3-76.3c-0.1-3.5-0.5-7-0.8-10.4c-0.2-2.5,0.9-3.2,3.3-2.7
	c38.3,6.7,76.9,5.9,115.5,5.7c24-0.2,47.9-0.9,71.9-2c26.9-1.2,53.9-2,80.8-2.9c14-0.5,27.9-1.2,41.9-1.8c3-0.1,4.9,0.4,3.9,4.2
	c-4.4,16.4-4.5,33.2-5.4,50c-1.8,33.8-1.3,67.6-0.7,101.4c0.4,26.3,0.4,52.6,0.9,78.9c0.4,21.5,1.2,42.9,2,64.4
	c0.9,24.1,1.9,48.2,3,72.3c0.4,9,1.3,17.9,1.8,26.9C403.3,510.4,403.1,510.4,396.9,509.9z M97.1,118.9c-4-1-2.9,1.9-2.8,3.8
	c0.6,15.1,1.2,30.3,1.9,45.4c2.4,52.4,4,104.8,4.6,157.3c0.6,55.4,1.5,110.7-2.6,166c-0.2,3-2.6,6.8-0.2,9s5.9-0.5,9-0.5
	c29.3,0,58.5-2.2,87.7-2.5c65.1-0.7,130.2-2.9,195.3,2.3c2.9,0.2,3.3-0.7,3.1-3.3c-0.7-9.7-1.4-19.5-1.8-29.2
	c-1.4-34.3-2.9-68.5-3.7-102.8c-1-42.6-1.7-85.3-2-127.9c-0.3-39.4-0.6-78.9,4.5-118.2c0.2-1.8-0.2-2.2-2-2.4
	c-3.4-0.4-6.5,1.2-9.8,1.1c-10.1-0.2-20.3,0.1-30.4,0.5c-37.9,1.5-75.9,3.3-113.8,4C188.3,122.4,142.6,123.7,97.1,118.9z"/>
<path class="st1" d="M61.6,441c-1-13.4-4-26.6-9.1-39.1c-5.6-13.9-12.6-27.2-19.6-40.4c-13.5-26-18.4-53.4-16.1-82.6
	c1.8-24.4,6.6-48.5,14.3-71.7c5.1-15,10.9-29.7,17.2-44.2c0.8-1.9,2.2-3.7,2-6.2c-4.2-0.2-8.2,1.4-12.4,1
	c-14.7-1.5-23.1-10.7-28.9-23.1c-7-14.6-3.1-35.6,9-45.4c17.5-14.1,42.1-12.8,56.5,10.5c8.5,13.9,8.9,29,8,44.4
	c-1,17.6-2.4,35.2-3.5,52.8c-1.3,20.6-2.8,41.2-3.6,61.8c-0.6,16.3-0.3,32.6-0.4,49c-0.3,31.2,2.6,62.1,5.8,93.1
	c2.6,25.5,7.8,50.7,7.2,76.4c-0.3,13.4-4.4,25.2-14.4,34.5c-14,12.9-32.6,12.4-47.8-0.9C11,498,4.3,467.1,12.3,449.4
	c8.9-19.8,26.8-21,42.6-12.8C57.2,438,59.4,439.4,61.6,441z M73.6,131c0.6-6.2-1-17.9-8.1-28.3c-6-8.7-13.9-13.8-24.9-12.6
	c-9.7,1-17.9,4.7-22.1,13.9c-5.8,12.8-4,24.9,4.7,36.1c7.6,9.8,25.7,13,34.6-1.9c6.6-10.9-0.3-26.3-12.8-28.6
	c-4.7-0.9-8.9,2.1-10.2,7.3c-1.2,4.9,2.1,6.4,5.7,7.8c1.7,0.5,3.5,1.1,5.2,1.8c2.2,1.1,2.9,3.1,2.3,5.5s-2.3,3-4.5,3.1
	c-3.2,0.1-5.8-1.3-8.5-2.6c-8-3.8-11.4-10.4-9.6-18.2c2.1-7.8,8.8-13.4,16.8-14.2c14.8-1,33.2,17.8,26.2,37.8
	c-6.6,18.7-14.9,36.7-22.1,55.1C32.8,228,24.8,263.9,26,301.7c0.5,15,3.8,29.8,9.8,43.6c5.7,13.7,13.3,26.5,19.7,39.8
	c13.8,28.3,19.2,59.9,15.6,91.2c-0.8,7-3.6,13.3-9.1,17.8c-7,5.8-14.9,6.4-23,2.6c-7.8-3.5-13-10.9-13.7-19.4
	c-1-9.4,2.7-14.3,11.4-16.5c5.3-1.4,9.5-0.2,9.8,3.1c0.5,5.1-3.6,5.6-7.3,6.3c-2.6,0.5-4.8,1.4-4.9,4.6c-0.3,6.5,5.5,13.5,11.6,14.3
	c7.7,1,13.4-3,15.1-10.4c1.6-6.9,1-13.5-0.9-20.2c-2.8-10.4-11.8-17.1-23-17.2c-8.6,0-15.7,6.2-17.9,17.2
	c-3.4,17.1,0.8,32.5,12.5,45.3c9.2,10.1,23.2,11,33.9,2.5c11.5-9.2,13.8-22.4,13.1-36.1c-1.4-25.3-5.1-50.3-8.1-75.4
	c-2.8-23.5-4.3-47-5.2-70.6c-1.3-32,0.9-63.9,1.9-95.9c0.3-11.1,1.2-22.3,2.1-33.4C71.1,175.6,72.7,156.4,73.6,131L73.6,131z"/>
<path class="st1" d="M430,439.2c6.2-3.4,11.7-6.1,18.3-6.4c24.8-1,49.7,26.8,35,55.9c-13.1,26.1-56,31.5-73.2,11.1
	c-3.7-4.4-6-9.1-6.2-14.9c-0.5-18.3,1.1-36.6,2.6-54.8c1.8-21.7,3.3-43.4,4.8-65.2c2.1-31,2.2-61.9,1.4-92.9
	c-0.5-20.3-3.1-40.4-5.2-60.6c-2.7-25.8-8.1-51.4-7.4-77.4c0.6-20.5,12-33.5,30.3-36.6c17.6-2.9,31.9,3.6,42.8,17.9
	c12.8,17,9.9,45.9-4.9,60.3c-6.7,6.5-14.6,8.2-23.5,7c-2.9-0.4-5.8-1.3-9.1-2c0.2,4.4,2.4,8.1,3.8,11.8c8.6,23.1,17,46.3,22.3,70.4
	c6,27,5.8,53.7-3,80.2c-6.2,18.8-14.7,36.8-20.5,55.8c-3.7,11.9-6.4,24.1-8.2,36.5C429.9,436.6,429.9,437.9,430,439.2z M413.1,475.2
	c-0.6,9.2,0.6,17.5,9.5,23c14.1,8.7,33.8,4.5,43-2.8c9.9-7.7,14.8-18.4,12-30.9c-2.6-11.4-11-18.2-22.1-21.7
	c-9.9-3.1-21.4,2.4-26,12.6c-4.2,9.5-1.2,19.8,8.1,25c5.9,3.4,12.4,5.3,19,1.4c3.4-1.8,5.1-5.7,4.2-9.4c-0.8-3.6-4-4.7-7.2-5.2
	c-1.8-0.3-3.7-0.1-5.5-0.4c-2.6-0.3-4.4-2-4.5-4.6c-0.1-2.9,2-4.1,4.5-4.3c2.2-0.2,4.3-0.2,6.5,0c8.6,1,14.9,6.6,15.9,14
	c1,7.1-3.9,15.7-10.7,18.8c-16.3,7.4-38.2-3.5-40.7-21.2c-2.6-18.2,1.3-36.1,4.9-53.9c4.5-21.8,13.2-42.2,21.4-62.8
	c10.5-26,13.6-52.8,8.8-80.3c-4.5-25.7-13.4-50.1-22.5-74.4c-5.2-13.9-10.7-27.7-14-42.1c-4.2-18.5,5.2-33.2,22.3-35.7
	c14.5-2.1,24.9,7.9,23,22.4c-0.9,7-8.3,13.8-15.4,14.2c-2.6,0.1-4.7-0.6-5.4-3.3c-0.7-3.1,1.1-4.6,3.8-5.5c1-0.2,1.9-0.5,2.9-0.8
	c3.8-1.8,5-5,5.1-9c0.1-3.6-1.2-6.4-4.6-7.5c-9.3-3.1-20.1,0.4-22.6,11c-1.5,6.5-0.3,12.7,1.8,18.6c2.5,6.9,8,11.1,15.2,12.2
	c7.6,1.2,14.9,1,20.2-6.3c11.6-15.9,12-42.5-9-55.8c-12.1-7.7-29-5.9-38.6,4.2c-7.5,8-7.5,18.1-7,27.8c1.2,24.4,5.1,48.6,8,72.9
	c2.8,23.3,4.5,46.7,5.3,70.1c1,32.3-1.1,64.6-2.9,96.8c-0.8,13.8-2,27.5-3.2,41.3C415.1,441,413.8,458,413.1,475.2z"/>
<path class="st1" d="M128.5,64.6c10.9-4.8,21.8-9.6,32.8-14.3c27.5-11.8,55.3-22.6,85.9-22.1c17.8,0.3,34.8,5.3,51.6,10.7
	c24.1,7.8,47.2,18.1,70.5,28c0.8,0.3,1.6,0.5,2.5,0.7c-0.5-2.7-0.8-4.9-1.3-7.1c-2.7-14.2,6.4-31.4,20.6-39
	c14.5-7.7,30.1-3.4,40.6,6.4c6.2,5.8,7.3,14.1,8.7,21.9c4.1,22.4-10.8,46.3-32.7,52.5c-9,2.6-18.3,0.7-27.2-0.7
	c-22.8-3.6-45.4-8.5-68.4-11.1c-35.6-4-71.2-5.5-107.1-2.7c-30.9,2.4-61.4,7.8-92.1,11c-9.4,1-19,1.7-28.3-0.7
	C73.4,95.2,66,87.7,61.5,77.5c-6.6-15-7.4-30.3-0.9-45.6c5.8-13.6,16.6-21.3,30.6-23.6s25.9,2.4,34.6,14c6.8,9.1,5.7,19.5,4.9,29.8
	C130.3,56.3,129.6,60.5,128.5,64.6z M66.1,53.4c-0.1,1.8-0.1,3.7,0,5.5C68.3,77,76.8,91.1,98.7,90.1c15-0.6,29.8-2.7,44.6-4.8
	c30-4.4,60-8.2,90.4-8.3c14.1,0,28.3-0.2,42.4,0.8c18.4,1.3,36.8,2.7,55,5.8c20,3.3,40,6.8,60.1,9.9c6.8,1,13.5,1,19.9-2.7
	c18.6-10.8,21.5-24.6,19.6-42.2c-0.8-7.5-3.6-14.3-11.2-18.4c-17.9-9.8-37.4,4.3-39.4,21.7c-1.5,12.9,5.4,22.3,17.3,24.6
	c1.8,0.4,3.7,0.1,5.3-0.7c7.3-3.5,13.1-13.5,12.3-21.4c-0.4-3.7-1.9-6.7-5.5-8.3c-4.1-1.8-6.4-0.6-7.3,3.7c-0.5,2.6-0.7,5.3-1.1,7.9
	c-0.4,2.4-1.5,4.1-4.1,4.2c-2.9,0.2-4.2-1.7-4.6-4.2c-0.9-5.1,0.3-9.9,2.4-14.5c1.7-4.1,5.6-6.9,10-7.1c8.9-0.9,18.1,6.5,19.3,15.3
	c1.6,12-3.2,21.6-11.9,29.3c-5.1,4.8-12.4,6.5-19.1,4.5c-6.3-1.6-12.5-3.6-18.5-6c-28.5-12-56.8-24.8-86.4-33.9
	c-14.5-4.5-29.4-7.7-44.6-7.8c-14.7,0-29.1,3.3-43.1,7.8c-19,6.2-37.3,14.2-55.6,22.4c-11.8,5.3-23.5,11.1-36.2,14.1
	c-15,3.5-26.5-2.2-31.4-15.7c-2.8-7.8-2-15.7,1.4-23.3c3.5-8.2,12.8-12.2,21.1-9.2c7,2.5,11.9,13.4,9.6,20.9c-0.7,2.2-2,3.5-4.2,3.5
	c-2.3,0.2-4.3-1.5-4.6-3.7c-0.3-1.9-0.2-4-0.3-6c-0.3-2.9-1.4-5.2-4.5-5.9s-5.6,0-7.5,2.6c-4.2,5.6-3.8,17.6,0.5,23.2
	S99,74,105.1,73.1c6.8-1,11.5-5.1,13.9-11.5c1.7-4.7,3.1-9.6,3.1-14.6c-0.1-6.9,0.7-14-4.4-19.9C105.7,13,88.9,15,76.9,25
	C68.3,32.2,65.7,42.4,66.1,53.4z"/>
<path class="st1" d="M122.2,542.8c2.1,5.4,4.8,9.2,5,13.8c0.6,12.2-5.2,20.8-15.2,27.2c-13.5,8.5-30.6,8.3-42.7-0.8
	c-2.6-1.8-4.7-4.3-6.2-7.1c-6-13-8.3-26.4-3.3-40.2c5.8-16.2,21.4-25.2,38.7-23.4c24.3,2.5,48.2,8,72.5,11c16.5,2,33,3.8,49.7,4.4
	c16.4,0.6,32.9,1.2,49.4,0.2c17.4-1.1,34.7-3.6,52-6.2c22-3.4,43.6-10.1,66.1-8.7c13.6,0.8,26.8,3.9,37.2,13.6
	c11.7,11,13.1,25,3.9,38.2c-9.7,14-23,21.8-40.1,22.8c-12.4,0.6-23.2-8.2-25.1-20.4c-1.2-6.9-0.5-14,2.1-20.5c0.4-1,1.6-2.1,0.6-3.2
	c-1.1-1.2-2.5-0.1-3.7,0.3c-18,5.9-34.3,15.2-51.1,23.6c-24,11.9-48.7,20.8-76.1,18.4c-22-1.9-42.7-8.3-62.3-18.3
	c-12.8-6.5-25.4-13.2-38.2-19.6C131.4,546.2,127.3,544.9,122.2,542.8z M67.2,551.2c0,2.2-0.3,4.4,0.1,6.5c2.4,13.8,5,19.2,17.2,22.3
	c11.3,2.9,21.2-0.9,28.9-9.3c6.9-7.5,6.2-16.6-0.8-23.8c-3.8-4-8.8-6.8-14.2-8c-7.4-1.7-11.6-0.3-14.8,4.9
	c-3.4,5.6-2.9,12.7,1.4,17.7c3.7,4.4,7.5,4,10.1-1.1c0.7-1.7,1.5-3.3,2.4-4.9c1.2-1.8,3-2.7,5.2-1.7c1.9,0.8,3.2,2.7,3.1,4.7
	c-0.1,5-6.4,13.2-11.3,15c-5.2,1.9-12.8-0.7-16.5-5.6c-1.2-1.6-2.3-3.2-3.2-5c-8.5-17.1,4.2-35.3,20.6-34.2c18,1.2,34.6,6.2,50.6,14
	c19.1,9.4,37.2,20.7,57.7,27.3c28.3,9.1,56.2,9.6,84-1.8c17.9-7.4,34.7-16.9,52.2-25c17.7-8.2,35.7-14.5,55.9-11.3
	c8.5,1.4,15.8,6.4,17.2,13.6c1.8,9-4.4,20.8-12.9,24.3c-8.8,3.7-18.5-1.4-19.5-10.1c-0.4-3.2,0.7-5.8,4-6.5s4.9,1.5,5.2,4.1
	c0.6,4.2,3.4,4,6.2,3.6c3.9-0.6,7.5-5.8,7.8-11.1c0.3-4.5-2.4-6.8-6.3-7.8c-7.4-1.9-14.6-1.2-19.9,4.5c-5.6,6-5.7,13.7-3.5,21.2
	s6.3,10.3,14,10.3c13.2,0,23.6-5.5,31.7-16c9.3-11.9,7.5-24.3-5.4-32.1c-2.3-1.3-4.7-2.5-7.2-3.4c-15.9-6-32-4.8-48.2-1.9
	c-29.3,5.1-58.5,11-88.4,12.7c-28.9,1.7-57.6,0.1-86.2-2.8c-25-2.5-49.6-7.6-74.4-11.4c-4.4-0.7-8.9-1-13.4-1.3
	C75.9,520.2,65.8,535.9,67.2,551.2L67.2,551.2z"/>
<path class="st0" d="M437.1,428.2c5.8-1.5,11.2-2.9,16.9-3.1c21.6-1.1,34.3,10,39.1,29.7c3.4,14.1,4.1,27.8-3.9,40.8
	c-6.2,10-15.6,16.1-26.1,20.6c-6.7,2.9-13.8,4.8-21,5.7c-2.9,0.3-3,1-2.3,3.6c3.1,11.3,4.6,22.8,1.5,34.4
	c-4.7,17.9-17.7,26.8-34.3,31.9c-6,1.9-12.3,2.8-18.6,2.7c-14.9-0.5-25.3-8.6-30.3-22.9c-1.7-4.7-2-9.7-3.1-15
	c-9.3,6.9-18.1,13.6-27.5,19.5c-7.7,4.9-15.4,10-23.4,14.5c-16.2,9.1-32.9,17.1-51.1,21.5c-10.9,2.6-21.8,2.4-32.6,0.3
	c-27.3-5.3-49.4-20-69.5-38.2c-6.5-6.1-12.7-12.6-18.4-19.4c-0.8,5.6,0.1,10.7-1.1,15.7c-3.7,15.6-14.9,22.6-29.2,25.4
	c-5.3,1-10.8,1.5-16.2,1.5c-5.3,0.1-10.8-2.6-15.8-4.8c-12.1-5.3-16.8-15.8-19-28c-2-10.8-1-21.5,1.4-32.1c0.5-2.4,0.5-3.1-2.4-3.8
	c-24-6.3-41.5-19.9-47.3-45.1c-3-12.8-2.8-25.8,1.9-38.3c7.6-20.1,22.5-24.5,41.5-21.8c1.9,0.3,3.8,0.9,6.6,1.6
	c-7.2-9.7-13.7-19.8-19.6-30.3C19.4,370.1,9.1,344,4.1,316c-9.5-53.4,3.6-101.8,33.2-146.4c0.7-1.1,1.6-2,2.4-3.1s1.4-1.8,2.5-3.3
	c-3.8-0.2-7.2-0.1-10.4-0.7C14.1,159,4,147.7,1.2,129.8c-1.4-9-1.9-18.4,0.6-26.5C6.1,89.2,15.1,77.8,30.2,73
	c4.8-1.5,9.5-3.2,14.5-3c3,0.1,4.2-0.9,3.8-4c-1.1-7.9-0.6-15.8,1.5-23.5C55.3,22.2,67.1,7,89.1,2.1c7.2-1.6,14.4-3,21.7-1.4
	c13.9,2.9,20.5,12.8,24.2,25.4c2.1,7,2.6,14.3,3.1,22.2c10.6-9.4,22.8-16.9,36-22.1c15.7-6.3,32.2-10.4,49-12.2
	c15.3-1.8,30.6-1.7,45.9-0.9c17.2,0.9,33.5,6,49.5,12.2c14.5,5.6,27.6,13.7,40.4,22.3c3.6,2.4,3.4,0.2,4.1-1.6
	c3.4-8.7,8.3-16.7,14.3-23.7C387,11.5,399,7.9,413,10.9c29.2,6.3,36.4,31.3,34.4,53.6c-0.6,6.9-1.6,13.9-4,20.5
	c-1.1,3.1,1,2.8,2.6,3.4c9.4,3.4,18.1,8.4,25.7,14.9c25.5,21.9,19.4,62,0,79.6c-3.1,2.7-6.7,4.9-10.6,6.3c-3.7,1.5-7.7,1.9-11.6,2.9
	c31.5,25.9,41.7,59.9,39.7,99c-0.8,16-5.9,30.9-11.1,45.7c-10.7,30.9-24.9,60.3-40.2,89.2C437.6,426.7,437.4,427.4,437.1,428.2z
	 M396.9,510c6.1,0.5,6.3,0.5,6-5.7c-0.5-9-1.3-17.9-1.8-26.9c-1.1-24.1-2.1-48.2-3-72.3c-0.8-21.5-1.5-42.9-2-64.4
	c-0.5-26.3-0.4-52.6-0.9-78.9c-0.6-33.8-1.1-67.6,0.7-101.4c0.9-16.8,1-33.6,5.4-50c1-3.8-0.9-4.3-3.9-4.2
	c-14,0.6-27.9,1.3-41.9,1.8c-26.9,0.9-53.9,1.7-80.8,2.9c-23.9,1.1-47.9,1.8-71.9,2c-38.6,0.2-77.2,1.1-115.5-5.7
	c-2.4-0.4-3.5,0.2-3.3,2.7c0.3,3.5,0.8,7,0.8,10.4c0.4,25.5,2,50.9,3,76.3c1.2,33.6,2.4,67.2,3,100.8c0.5,33.8,0.3,67.6,0.4,101.4
	c0.1,24.2-0.1,48.3-1.3,72.4c-0.5,11.5-1.7,22.9-3.5,34.2c-0.8,4.9,0.1,5.7,4.6,5.5c20.9-1.1,41.9-2.1,62.8-2.8
	c21.8-0.8,43.6-1.9,65.4-1.9C278.5,506.1,337.8,504.3,396.9,510L396.9,510z M61.6,441c-2.1-1.6-4.4-3.1-6.6-4.5
	c-15.8-8.2-33.7-7-42.6,12.8c-8,17.8-1.3,48.7,13.4,61.5c15.2,13.3,33.8,13.7,47.8,0.9c10-9.2,14.2-21.1,14.4-34.5
	c0.6-25.8-4.6-51-7.2-76.4c-3.2-31-6-61.9-5.8-93.1c0.1-16.3-0.2-32.7,0.4-49c0.8-20.6,2.3-41.2,3.6-61.8
	c1.1-17.6,2.6-35.2,3.5-52.8c0.8-15.4,0.5-30.6-8-44.4C60.1,76.4,35.5,75.1,18,89.2C6,99.1,2.1,120,9,134.7
	c5.9,12.4,14.2,21.6,28.9,23.1c4.2,0.4,8.2-1.2,12.4-1c0.2,2.5-1.1,4.3-2,6.2c-6.3,14.5-12.1,29.2-17.2,44.2
	c-7.7,23.2-12.6,47.3-14.3,71.8c-2.3,29.2,2.5,56.6,16.1,82.6c6.9,13.3,14,26.5,19.6,40.4C57.5,414.4,60.6,427.6,61.6,441z
	 M430,439.2c-0.1-1.3-0.1-2.6,0-3.8c1.8-12.4,4.6-24.6,8.2-36.5c5.8-19,14.2-36.9,20.5-55.8c8.8-26.6,9-53.2,3-80.2
	c-5.3-24.1-13.7-47.3-22.3-70.4c-1.4-3.7-3.6-7.4-3.8-11.8c3.3,0.8,6.2,1.6,9.1,2c8.8,1.2,16.8-0.5,23.5-7
	c14.9-14.5,17.9-43.4,5-60.3c-10.8-14.3-25.2-20.9-42.8-17.9c-18.3,3.1-29.8,16.1-30.3,36.6c-0.7,26.1,4.7,51.6,7.4,77.4
	c2.1,20.2,4.7,40.4,5.2,60.6c0.8,31,0.6,61.9-1.4,92.9c-1.4,21.7-3,43.5-4.8,65.2c-1.5,18.3-3.1,36.5-2.6,54.8
	c0.2,5.7,2.5,10.5,6.2,14.9c17.2,20.4,60.1,15,73.2-11.1c14.6-29.1-10.2-56.9-35-55.9C441.7,433,436.2,435.7,430,439.2z M128.5,64.6
	c1.1-4.1,1.8-8.2,2.2-12.4c0.8-10.3,1.9-20.7-4.9-29.8c-8.7-11.7-20.6-16.4-34.6-14S66.3,18.4,60.6,32c-6.5,15.3-5.7,30.6,0.9,45.6
	C66,87.7,73.4,95.2,84.5,98c9.3,2.3,18.9,1.6,28.3,0.7c30.8-3.2,61.2-8.5,92.1-11c35.9-2.8,71.5-1.3,107.1,2.7
	c23,2.6,45.6,7.5,68.4,11.1c9,1.4,18.2,3.2,27.2,0.7c21.9-6.2,36.8-30.1,32.7-52.5c-1.4-7.8-2.5-16.1-8.7-21.9
	c-10.5-9.8-26-14.1-40.6-6.4c-14.2,7.6-23.4,24.8-20.6,39c0.4,2.2,0.8,4.4,1.3,7.1c-0.8-0.2-1.7-0.4-2.5-0.7
	c-23.3-9.9-46.4-20.2-70.5-28C282,33.4,265,28.4,247.2,28.1c-30.6-0.5-58.4,10.3-85.9,22.1C150.4,54.9,139.5,59.8,128.5,64.6z
	 M122.2,542.8c5.1,2,9.2,3.3,13.1,5.3c12.8,6.4,25.4,13.1,38.2,19.6c19.6,10,40.3,16.4,62.3,18.3c27.5,2.4,52.2-6.5,76.2-18.4
	c16.8-8.4,33.2-17.7,51.1-23.6c1.2-0.4,2.6-1.5,3.7-0.3c1,1-0.2,2.2-0.6,3.2c-2.6,6.5-3.4,13.6-2.1,20.5c1.9,12.2,12.8,21,25.1,20.4
	c17.1-1,30.4-8.8,40.1-22.8c9.1-13.2,7.7-27.3-3.9-38.2c-10.4-9.8-23.6-12.8-37.2-13.6c-22.5-1.4-44.1,5.3-66.1,8.7
	c-17.3,2.7-34.5,5.1-52,6.2c-16.5,1.1-32.9,0.4-49.4-0.2c-16.6-0.6-33.2-2.4-49.7-4.4c-24.2-3-48.1-8.6-72.5-11
	c-17.3-1.8-32.9,7.2-38.7,23.4c-4.9,13.8-2.7,27.2,3.3,40.2c1.4,2.8,3.5,5.3,6.1,7.1c12.1,9.1,29.1,9.3,42.7,0.8
	c10.1-6.4,15.8-15,15.2-27.2C127,552,124.3,548.2,122.2,542.8z"/>
<path class="st0" d="M73.5,131c-0.9,25.4-2.5,44.6-4.1,63.8c-0.9,11.1-1.8,22.2-2.1,33.4c-1,32-3.2,63.9-1.9,95.9
	c1,23.6,2.5,47.1,5.2,70.6c3,25.1,6.7,50.1,8.1,75.4c0.8,13.7-1.5,26.8-13.1,36.1c-10.7,8.5-24.7,7.6-33.9-2.5
	c-11.8-12.9-16-28.3-12.5-45.3c2.2-11,9.2-17.2,17.9-17.2c11.2,0,20.2,6.8,23,17.2c1.8,6.7,2.5,13.4,0.9,20.2
	C59.2,486,53.5,490,45.9,489c-6.2-0.8-11.9-7.9-11.7-14.3c0.1-3.2,2.3-4.2,4.9-4.6c3.7-0.7,7.8-1.2,7.3-6.3
	c-0.3-3.3-4.5-4.4-9.8-3.1c-8.7,2.2-12.4,7.1-11.4,16.5c0.6,8.5,5.9,16,13.7,19.5c8,3.8,16,3.1,23-2.6c5.5-4.5,8.3-10.8,9.1-17.8
	c3.6-31.3-1.8-63-15.6-91.3c-6.4-13.3-13.9-26.1-19.7-39.8c-5.9-13.8-9.2-28.6-9.8-43.5C24.8,263.8,32.8,228,46.3,193
	c7.1-18.5,15.5-36.4,22.1-55.1c7-20-11.5-38.8-26.2-37.8c-8,0.8-14.7,6.4-16.8,14.2c-1.8,7.8,1.6,14.4,9.5,18.2
	c2.7,1.3,5.3,2.7,8.5,2.6c2.2-0.1,4-0.7,4.5-3.1s-0.1-4.4-2.3-5.5c-1.7-0.7-3.4-1.3-5.2-1.8c-3.6-1.3-7-2.9-5.7-7.8
	c1.3-5.2,5.5-8.2,10.2-7.3c12.5,2.3,19.4,17.7,12.8,28.6c-8.9,14.8-27,11.6-34.6,1.9c-8.7-11.2-10.5-23.2-4.7-36.1
	c4.2-9.3,12.5-13,22.1-14c11-1.1,18.9,3.9,24.9,12.6C72.5,113.1,74.1,124.8,73.5,131z"/>
<path class="st0" d="M413.1,475.2c0.7-17.1,2.1-34.2,3.6-51.2c1.2-13.8,2.4-27.5,3.2-41.3c1.8-32.2,4-64.5,2.9-96.8
	c-0.8-23.4-2.5-46.8-5.3-70.1c-2.9-24.3-6.9-48.5-8-72.9c-0.5-9.7-0.5-19.8,7-27.8c9.6-10.1,26.5-11.9,38.6-4.2
	c21,13.3,20.6,39.8,9,55.8c-5.3,7.3-12.6,7.4-20.2,6.3c-7.2-1.1-12.8-5.3-15.2-12.2c-2.1-5.9-3.4-12.2-1.8-18.6
	c2.5-10.6,13.3-14.1,22.6-11c3.3,1.1,4.7,3.9,4.6,7.5c-0.2,4-1.4,7.2-5.1,9c-0.9,0.3-1.9,0.6-2.9,0.8c-2.7,0.8-4.5,2.4-3.8,5.5
	c0.7,2.8,2.8,3.5,5.4,3.3c7.1-0.4,14.4-7.1,15.4-14.2c1.9-14.5-8.4-24.6-23-22.4c-17.1,2.5-26.5,17.2-22.3,35.7
	c3.3,14.5,8.8,28.3,14,42.1c9.2,24.3,18,48.8,22.5,74.5c4.9,27.5,1.7,54.3-8.8,80.3c-8.2,20.5-16.9,41-21.4,62.8
	c-3.7,17.8-7.5,35.7-4.9,53.9c2.5,17.7,24.4,28.5,40.7,21.2c6.8-3.1,11.7-11.6,10.7-18.8c-1-7.5-7.3-13.1-15.9-14
	c-2.2-0.2-4.3-0.3-6.5,0c-2.5,0.2-4.7,1.4-4.5,4.3c0.1,2.6,1.9,4.2,4.5,4.6c1.8,0.2,3.7,0.1,5.5,0.4c3.2,0.5,6.4,1.5,7.2,5.2
	c0.9,3.7-0.8,7.6-4.2,9.4c-6.6,4-13.1,2-19-1.4c-9.3-5.3-12.3-15.5-8.1-25c4.5-10.2,16-15.7,26-12.6c11.1,3.5,19.5,10.2,22.1,21.7
	c2.9,12.5-2.1,23.3-12,30.9c-9.3,7.2-29,11.4-43,2.8C413.6,492.6,412.5,484.4,413.1,475.2z"/>
<path class="st0" d="M66.1,53.4c-0.4-11,2.2-21.2,10.8-28.4c12-10,28.8-12,40.5,1.8c5.1,6,4.3,13.1,4.4,19.9c0.1,5-1.3,9.9-3.1,14.6
	c-2.4,6.5-7.1,10.5-13.9,11.5c-6.1,0.9-11.9,0.8-16.3-4.9s-4.7-17.6-0.4-23.2c2-2.6,4.6-3.2,7.6-2.5s4.2,3,4.5,5.9c0.2,2,0,4,0.3,6
	c0.3,2.3,2.3,3.9,4.6,3.7c2.3,0,3.5-1.3,4.2-3.5c2.3-7.5-2.6-18.4-9.6-20.9c-8.4-3.1-17.7,1-21.1,9.2c-3.4,7.6-4.2,15.6-1.4,23.3
	c4.8,13.5,16.3,19.2,31.4,15.7c12.7-3,24.4-8.8,36.2-14.1c18.2-8.2,36.5-16.3,55.6-22.4c14-4.5,28.4-7.8,43.1-7.8
	c15.2,0,30.1,3.3,44.6,7.8C317.7,54.3,346,67,374.5,79c6,2.4,12.2,4.4,18.5,6c6.7,2.1,14,0.4,19.1-4.4c8.7-7.7,13.5-17.3,11.9-29.3
	c-1.2-8.9-10.4-16.2-19.3-15.3c-4.4,0.2-8.3,3-10,7.1c-2.1,4.7-3.3,9.4-2.4,14.5c0.4,2.5,1.7,4.4,4.6,4.2c2.6-0.2,3.8-1.9,4.1-4.2
	c0.4-2.6,0.6-5.3,1.1-7.9c0.9-4.3,3.2-5.5,7.3-3.7c3.6,1.6,5.1,4.6,5.5,8.3c0.8,7.9-5,17.9-12.3,21.4c-1.6,0.8-3.5,1-5.3,0.7
	c-11.9-2.2-18.9-11.7-17.3-24.6c2.1-17.4,21.5-31.5,39.4-21.6c7.5,4.1,10.4,10.8,11.2,18.4c1.9,17.6-1,31.5-19.5,42.2
	c-6.4,3.7-13.1,3.7-19.9,2.7c-20-3.1-40.1-6.5-60.1-9.9c-18.2-3-36.6-4.5-55-5.8c-14.1-1-28.3-0.8-42.4-0.8
	c-30.4,0.1-60.4,3.9-90.4,8.3c-14.8,2.2-29.6,4.2-44.6,4.8c-21.9,1-30.4-13.1-32.6-31.2C66,57.1,66,55.2,66.1,53.4z"/>
<path class="st0" d="M67.2,551.2c-1.4-15.3,8.7-31.1,29.2-29.4c4.5,0.4,9,0.6,13.4,1.3c24.8,3.8,49.5,8.9,74.4,11.4
	c28.6,2.9,57.3,4.4,86.2,2.8c29.9-1.7,59-7.6,88.4-12.7c16.2-2.8,32.4-4,48.2,1.9c2.5,0.9,4.9,2,7.2,3.4
	c12.9,7.9,14.7,20.2,5.4,32.1c-8.2,10.4-18.5,16-31.7,16c-7.7,0-11.8-2.9-14-10.3s-2-15.2,3.5-21.2c5.3-5.7,12.5-6.4,19.9-4.5
	c3.9,1,6.5,3.3,6.3,7.8c-0.3,5.3-3.9,10.5-7.8,11.1c-2.9,0.4-5.6,0.6-6.2-3.6c-0.4-2.6-2.1-4.8-5.2-4.1s-4.3,3.3-4,6.5
	c1,8.8,10.7,13.8,19.5,10.1c8.5-3.6,14.7-15.3,12.9-24.3c-1.5-7.2-8.7-12.2-17.2-13.6c-20.1-3.3-38.2,3.1-55.9,11.3
	c-17.5,8.1-34.3,17.7-52.2,25c-27.8,11.4-55.7,10.9-84,1.8c-20.4-6.6-38.6-17.9-57.7-27.3c-16-7.9-32.6-12.9-50.6-14
	c-16.4-1.1-29.1,17.1-20.6,34.2c0.9,1.8,2,3.4,3.2,5c3.8,4.9,11.3,7.5,16.5,5.6c5-1.8,11.3-10,11.3-15c0.1-2.1-1.1-4-3.1-4.7
	c-2.2-1-4,0-5.2,1.7c-0.9,1.6-1.7,3.2-2.4,4.9c-2.6,5.1-6.4,5.5-10.1,1.1c-4.2-5-4.8-12.1-1.4-17.7c3.2-5.2,7.4-6.6,14.8-4.9
	c5.4,1.2,10.3,4,14.2,8c7.1,7.2,7.7,16.3,0.8,23.8c-7.7,8.4-17.6,12.2-28.9,9.3c-12.2-3.1-14.7-8.5-17.2-22.3
	C66.9,555.6,67.2,553.4,67.2,551.2z"/>
</svg>
