<?xml version="1.0" encoding="utf-8"?>
<!-- Generator: Adobe Illustrator 24.0.3, SVG Export Plug-In . SVG Version: 6.00 Build 0)  -->
<svg version="1.1"
	 id="Layer_1" inkscape:version="0.48.2 r9819" sodipodi:docname="Friends_logo.svg.2012_11_05_15_40_59.0.svg" xmlns:cc="http://creativecommons.org/ns#" xmlns:dc="http://purl.org/dc/elements/1.1/" xmlns:inkscape="http://www.inkscape.org/namespaces/inkscape" xmlns:rdf="http://www.w3.org/1999/02/22-rdf-syntax-ns#" xmlns:sodipodi="http://sodipodi.sourceforge.net/DTD/sodipodi-0.dtd" xmlns:svg="http://www.w3.org/2000/svg"
	 xmlns="http://www.w3.org/2000/svg" xmlns:xlink="http://www.w3.org/1999/xlink" x="0px" y="0px" viewBox="0 0 1185.6 384.5"
	 style="enable-background:new 0 0 1185.6 384.5;" xml:space="preserve">
<style type="text/css">
	.st0{display:none;}
	.st1{fill-rule:evenodd;clip-rule:evenodd;fill:#E91E23;}
	.st2{fill-rule:evenodd;clip-rule:evenodd;fill:#02B2E7;}
	.st3{fill-rule:evenodd;clip-rule:evenodd;fill:#FABC16;}
	.st4{fill-rule:evenodd;clip-rule:evenodd;fill:#FFFFFF;}
	.st5{fill:none;stroke:#FFFFFF;stroke-width:12.1706;stroke-linecap:round;stroke-linejoin:round;stroke-miterlimit:2.6131;}
	.st6{fill:#FFFFFF;}
</style>
<rect x="-15.4" y="-15.4" class="st0" width="1223.7" height="418.8"/>
<sodipodi:namedview  bordercolor="#666666" borderopacity="1" fit-margin-bottom="0" fit-margin-left="0" fit-margin-right="0" fit-margin-top="0" gridtolerance="10" guidetolerance="10" id="namedview51" inkscape:current-layer="Layer_1" inkscape:cx="577.92878" inkscape:cy="257.10694" inkscape:pageopacity="0" inkscape:pageshadow="2" inkscape:window-height="837" inkscape:window-maximized="1" inkscape:window-width="1600" inkscape:window-x="-8" inkscape:window-y="-8" inkscape:zoom="0.97035432" objecttolerance="10" pagecolor="#ffffff" showgrid="false">
	</sodipodi:namedview>
<g>
	<path id="path7-1-0" inkscape:connector-curvature="0" class="st1" d="M144,94.6c0-3.7-1.5-7.1-4.1-9.7c-2.8-2.9-5.9-4.2-9.8-4.2
		c-3.6,0-6.9,1.3-9.8,4.2c-2.6,2.6-3.9,6-3.9,9.7c0,3.9,1.3,7.4,3.9,10c2.8,2.9,6.2,4.2,9.8,4.2c3.9,0,6.9-1.3,9.8-4.2
		C142.4,102,144,98.6,144,94.6L144,94.6z"/>
	<path id="path9-7-6" inkscape:connector-curvature="0" class="st2" d="M348.8,87c-2.8-2.6-5.9-3.9-9.8-3.9s-6.9,1.3-9.8,3.9
		c-2.6,2.9-3.9,6-3.9,10c0,3.9,1.3,7.1,3.9,10c2.8,2.6,6.2,3.9,9.8,3.9c3.9,0,6.9-1.3,9.8-3.9c2.6-2.9,4.1-6,4.1-10
		C353,93,351.4,89.9,348.8,87L348.8,87z"/>
	<path id="path11-4-1" inkscape:connector-curvature="0" class="st3" d="M470.8,88c-2.8-2.9-5.9-4.2-9.8-4.2c-3.6,0-6.9,1.3-9.8,4.2
		c-2.6,2.6-3.9,6-3.9,9.7c0,3.9,1.3,7.4,3.9,10c2.8,2.9,6.2,4.2,9.8,4.2c3.9,0,6.9-1.3,9.8-4.2c2.6-2.6,4.1-6,4.1-10
		C475,94.1,473.4,90.7,470.8,88L470.8,88z"/>
	<path id="path13-0-3" inkscape:connector-curvature="0" class="st1" d="M653.1,101.3c0-3.9-1.3-7.1-3.9-10
		c-2.8-2.6-6.2-4.2-9.8-4.2c-3.9,0-6.9,1.6-9.8,4.2c-2.6,2.9-3.9,6-3.9,10c0,3.7,1.3,7.1,3.9,10c2.8,2.6,5.9,3.9,9.8,3.9
		c3.6,0,6.9-1.3,9.8-3.9C651.8,108.4,653.1,105,653.1,101.3L653.1,101.3z"/>
	<path id="path15-9-8" inkscape:connector-curvature="0" class="st3" d="M843.3,88.8c-2.8-2.6-6.2-4.2-9.8-4.2
		c-3.9,0-6.9,1.6-9.8,4.2c-2.6,2.9-3.9,6-3.9,10c0,3.7,1.3,7.1,3.9,10c2.8,2.6,5.9,3.9,9.8,3.9c3.6,0,6.9-1.3,9.8-3.9
		c2.6-2.9,3.9-6.3,3.9-10C847.1,94.9,845.8,91.7,843.3,88.8L843.3,88.8z"/>
	<path id="path17-4-9" inkscape:connector-curvature="0" class="st2" d="M1062.5,87.5c-2.6-2.9-5.9-4.2-9.5-4.2
		c-3.9,0-7.2,1.3-9.8,4.2c-2.8,2.6-4.1,6-4.1,9.7c0,3.9,1.3,7.4,4.1,10c2.6,2.9,5.9,4.2,9.8,4.2c3.6,0,7-1.3,9.5-4.2
		c2.8-2.6,4.1-6,4.1-10C1066.6,93.6,1065.3,90.2,1062.5,87.5L1062.5,87.5z"/>
	<path id="path19-8-3" inkscape:connector-curvature="0" class="st4" d="M573.7,50.5v-7.9c-15.2-5.3-29.9-3.4-43.7,5.3
		c-4.4,2.1-8.2,6.8-11.8,13.9L509.3,82c-1.8,3.4-2.6,8.1-2.6,14.4c0,6-1,10.8-2.6,14.4c-1.8,5.3-2.6,15-2.6,28.9
		c16.7-1.8,30.4-4.2,41.4-7.3c15.7-4.5,27.5-10.8,35.8-18.9c-7.5,0-16.2,1.6-25.7,4.5l-25.7,8.7c-4.9,0-8.2-2.1-10-6.3
		c-1.8-3.7-1.8-7.9-0.3-12.1c4.1-6.6,6.9-10.5,8.5-11.8c4.1-3.9,9-5.3,14.7-3.9c0.8,0,1.5-1.1,2.6-2.6c0.8-1.8,1.5-2.6,2.6-2.6
		l7.2,0.8c2.8,0.5,4.6,0.3,5.7-0.8c2.1-1.6,5.9-2.9,11.6-4.5c4.6-1,8.5-3.2,11.6-6H530c-2.1,0-3.3-0.8-4.1-2.1
		c-0.8-1.3-0.8-2.9-0.5-5c0.8-4.5,3.1-7.4,7.2-8.7C542.3,56.7,555.9,53.3,573.7,50.5L573.7,50.5L573.7,50.5z"/>
	<polygon id="polygon21-8-4" class="st4" points="585.2,78 581.4,78.5 581.4,78.5 586.3,78.5 	"/>
	<path id="path23-2-4" inkscape:connector-curvature="0" class="st4" d="M586.3,78.5l2.8,0.8c3.1,1.3,5.7,1.1,7.7-0.8H586.3
		L586.3,78.5L586.3,78.5z"/>
	<path id="path25-4-6" inkscape:connector-curvature="0" class="st5" d="M581.4,76.7h4.9 M586.3,76.7l2.8,0.8 M589.1,77.5
		c3.1,1.3,5.7,1.1,7.7-0.8 M596.8,76.7h-10.5 M586.3,76.7l-1-0.5l-3.9,0.5 M581.4,76.7h-51.5 M529.9,76.7c-2.1,0-3.3-0.8-4.1-2.1
		c-0.8-1.3-0.8-2.9-0.5-5c0.8-4.5,3.1-7.4,7.2-8.7c9.8-4.2,23.4-7.6,41.2-10.5 M573.7,50.5v-7.9 M573.7,42.6
		c-15.2-5.3-29.9-3.4-43.7,5.3c-4.4,2.1-8.2,6.8-11.8,13.9 M518.1,61.7L509.3,82 M509.3,82c-1.8,3.4-2.6,8.1-2.6,14.4
		c0,6-1,10.8-2.6,14.4c-1.8,5.3-2.6,15-2.6,28.9c16.7-1.8,30.4-4.2,41.4-7.3c15.7-4.5,27.5-10.8,35.8-18.9c-7.5,0-16.2,1.6-25.7,4.5
		 M553.1,118l-25.7,8.7 M527.3,126.6c-4.9,0-8.2-2.1-10-6.3c-1.8-3.7-1.8-7.9-0.3-12.1c4.1-6.6,6.9-10.5,8.5-11.8
		c4.1-3.9,9-5.3,14.7-3.9c0.8,0,1.5-1.1,2.6-2.6c0.8-1.8,1.5-2.6,2.6-2.6 M545.3,87.2l7.2,0.8 M552.6,88c2.8,0.5,4.6,0.3,5.7-0.8
		c2.1-1.6,5.9-2.9,11.6-4.5c4.6-1,8.5-3.2,11.6-6"/>
	<path id="path27-5-0" inkscape:connector-curvature="0" class="st4" d="M780.3,55c0-1.6,0.8-4.7,2.6-9.2c1.8-4.2,2.6-7.4,2.6-9.2
		c0.5-1.3,1.5-3.4,3.1-5.3l3.6-5.5c2.8-4.5,3.1-8.7,1-12.9c-2.6,7.9-7.2,19.7-14.1,35.5c-7,15.8-11.6,27.6-14.2,35.5L759.7,98
		c-3.1,5-7.2,6.6-12.9,4.2c-14.7-6-26-14.7-33.4-26.3l-7.7-15.5c-3.1-5.5-5.7-7.6-7.7-5.5c-7.5,7.9-12.6,19.4-14.7,35.2l-3.3,41
		c2.1,0,3.1,1.3,3.3,3.7l0.5,1.8c0.3,0.5,0.8,0.5,1.3-0.3c2.1-3.4,3.9-8.1,4.9-14.5l2.3-16c0.5-6,1.5-10.2,2.8-12.6
		c1.8-3.4,4.4-4.7,8-4.2c4.6,0,9.5,1.6,14.1,4.5c3.9,2.1,8,5.5,12.9,10.2L743,117c5.1,5,9.8,8.9,14.2,11.5c5.1,0,7.7-0.8,7.7-2.6
		c0-10.5,1.5-22.3,4.6-35.5C771.6,82.5,775.2,70.7,780.3,55L780.3,55L780.3,55z"/>
	<path id="path29-5-6" inkscape:connector-curvature="0" class="st5" d="M782.9,45.8c1.8-4.2,2.6-7.4,2.6-9.2
		c0.5-1.3,1.5-3.4,3.1-5.3 M788.6,31.3l3.6-5.5 M792.2,25.8c2.8-4.5,3.1-8.7,1-12.9c-2.6,7.9-7.2,19.7-14.1,35.5
		c-7,15.8-11.6,27.6-14.2,35.5 M764.9,83.9L759.7,98 M759.7,98c-3.1,5-7.2,6.6-12.9,4.2c-14.7-6-26-14.7-33.4-26.3 M713.4,76
		l-7.7-15.5 M705.7,60.5c-3.1-5.5-5.7-7.6-7.7-5.5c-7.5,7.9-12.6,19.4-14.7,35.2 M683.3,90.2l-3.3,41 M680,131.1
		c2.1,0,3.1,1.3,3.3,3.7 M683.3,134.8l0.5,1.8 M683.8,136.7c0.3,0.5,0.8,0.5,1.3-0.3c2.1-3.4,3.9-8.1,4.9-14.5 M690,121.9l2.3-16
		 M692.3,105.9c0.5-6,1.5-10.2,2.8-12.6c1.8-3.4,4.4-4.7,8-4.2c4.6,0,9.5,1.6,14.1,4.5c3.9,2.1,8,5.5,12.9,10.2 M730.1,103.8
		L743,117 M743,117c5.1,5,9.8,8.9,14.2,11.5c5.1,0,7.7-0.8,7.7-2.6c0-10.5,1.5-22.3,4.6-35.5c2.1-7.9,5.7-19.7,10.8-35.5
		c0-1.6,0.8-4.7,2.6-9.2"/>
	<path id="path31-1-6" inkscape:connector-curvature="0" class="st4" d="M988.4,89.9c2.8-14.7-0.8-27.1-10.3-36.8
		c-12.4-9.5-24.4-12.9-36-10.5l-21.6-2.4c-8.2-1.1-14.9-1.1-19.6-0.3c2.1,10.8,0.8,23.4-4.4,37.3l-13.6,33.6
		c-3.3,6.3-4.1,12.9-2.6,19.2l5.1,17.6h5.1v-15.8c0-1,0.5-1.8,1.5-2.1l3.6-0.5c7.5-3.2,20.3-6.3,38.6-9.7
		c16.5-2.9,29.3-6.6,38.6-11.3c4.1-2.9,7.5-6,10.5-9.2C986.6,95.4,988.4,92.2,988.4,89.9L988.4,89.9L988.4,89.9z M971.7,64.4
		c5.4,4.5,8.8,11,10.3,20.2c-2.1,7.9-9,13.7-20.8,17.3l-15.7,3.9c-6.7,1.6-11.8,3.2-15.4,4.7c-2.6,0-5.1-2.1-8.2-6.6
		c-1.5-2.1-3.1-3.4-4.6-3.7c-1.3,0-2.8,0.5-4.9,1.6l-6.2,2.4l-8.5-0.3l9.3-24.7c3.3-10,5.7-18.4,6.9-24.7c4.4,1.6,11.1,2.4,19.3,2.4
		l20.8,0.8C961.7,58.6,967.6,61,971.7,64.4L971.7,64.4L971.7,64.4z"/>
	<path id="path33-7-1" inkscape:connector-curvature="0" class="st5" d="M978.1,53.1c-12.4-9.5-24.4-12.9-36-10.5 M942.1,42.6
		l-21.6-2.4 M920.5,40.2c-8.2-1.1-14.9-1.1-19.6-0.3c2.1,10.8,0.8,23.4-4.4,37.3 M896.6,77.3L883,110.9 M882.9,110.9
		c-3.3,6.3-4.1,12.9-2.6,19.2 M880.4,130.1l5.1,17.6h5.1v-15.8 M890.6,131.9c0-1,0.5-1.8,1.5-2.1 M892.2,129.8l3.6-0.5 M895.8,129.3
		c7.5-3.2,20.3-6.3,38.6-9.7c16.5-2.9,29.3-6.6,38.6-11.3c4.1-2.9,7.5-6,10.5-9.2c3.1-3.7,4.9-6.8,4.9-9.2
		c2.8-14.7-0.8-27.1-10.3-36.8"/>
	<path id="path35-1-8" inkscape:connector-curvature="0" class="st4" d="M1167.4,49.2l-0.8-7.6h-7.7c-9,7.1-19.3,14.2-30.9,21
		c-22.4,9.2-32.7,18.9-30.9,28.9c1.8,4.2,5.1,7.1,10,8.4l16,0.5l18.5-1.8l17.2,0.8c1.3,0,2.1,0.5,2.8,1.3l2.3,3.9
		c1,2.1,0.8,4.2-0.3,6.3l-2.3,4.2c-6.2,5.3-13.6,9.7-22.1,13.4c-8.2,3.9-16.2,6.3-24.2,7.6c-3.3,3.7-5.1,7.1-5.1,10.5
		c4.4-3.7,10.5-7.4,18.8-10.8l21.9-7.9c8.2-3.4,14.4-6.8,18.8-10.5c5.4-4.7,9-10.8,10-18.1c-6.9-3.9-16.7-6-28.6-5.5l-30.6,0.3
		c-2.1-1-3.1-3.2-3.1-6.6l0.5-6.6c16.2-13.1,31.7-21.8,46.3-26.3C1166.4,53.7,1167.4,51.9,1167.4,49.2L1167.4,49.2L1167.4,49.2z"/>
	<path id="path37-1-4" inkscape:connector-curvature="0" class="st5" d="M1166.7,41.6h-7.7 M1158.9,41.6c-9,7.1-19.3,14.2-30.9,21
		c-22.4,9.2-32.7,18.9-30.9,28.9c1.8,4.2,5.1,7.1,10,8.4 M1107.2,99.9l16,0.5l18.5-1.8l17.2,0.8 M1158.9,99.4c1.3,0,2.1,0.5,2.8,1.3
		 M1161.8,100.7l2.3,3.9 M1164.1,104.7c1,2.1,0.8,4.2-0.3,6.3 M1163.8,111l-2.3,4.2 M1161.5,115.2c-6.2,5.3-13.6,9.7-22.1,13.4
		c-8.2,3.9-16.2,6.3-24.2,7.6c-3.3,3.7-5.1,7.1-5.1,10.5c4.4-3.7,10.5-7.4,18.8-10.8 M1128.8,135.9l21.9-7.9 M1150.7,128
		c8.2-3.4,14.4-6.8,18.8-10.5c5.4-4.7,9-10.8,10-18.1c-6.9-3.9-16.7-6-28.6-5.5 M1151,93.9l-30.6,0.3 M1120.3,94.2
		c-2.1-1-3.1-3.2-3.1-6.6 M1117.3,87.6l0.5-6.6 M1117.8,81c16.2-13.1,31.7-21.8,46.3-26.3c2.3-1,3.4-2.9,3.4-5.5 M1167.4,49.2
		l-0.8-7.6"/>
	<path id="path39-5-9" inkscape:connector-curvature="0" class="st4" d="M398.8,64.8c3.3-11.6,3.9-22.1,1.5-31.3h-5.1
		c-5.1,21-11.1,52.5-18,94.6c0,1.8,2.6,2.6,7.7,2.6c0.5-2.9,1-9.2,0.5-18.6c0-8.4,0.5-14.4,2.1-18.1L398.8,64.8L398.8,64.8z"/>
	<path id="path41-2-6" inkscape:connector-curvature="0" class="st5" d="M400.3,33.5h-5.1 M395.2,33.5c-5.1,21-11.1,52.5-18,94.6
		c0,1.8,2.6,2.6,7.7,2.6c0.5-2.9,1-9.2,0.5-18.6c0-8.4,0.5-14.4,2.1-18.1 M387.5,93.9l11.3-29.2 M398.8,64.8
		c3.3-11.6,3.9-22.1,1.5-31.3"/>
	<path id="path43-7-3" inkscape:connector-curvature="0" class="st4" d="M245.3,32.2c-6.2-1.3-12.1-1.3-17.5,0
		c-6.4,5-12.4,8.1-18,9.7c-7.2,1.8-13.4,0.3-18-4.5l-2.6,10.5c-3.3,13.1-7.7,32.6-12.9,57.8c-5.1,25.5-9.3,44.7-12.9,57.8
		c-2.1,6.3-1,15,2.6,26.3l1.3-22.3c0.8-9.2,1.3-16.6,2.3-22.3c2.6-16.5,8.2-28.9,17-36.8c4.6-3.4,11.6-4.2,20.8-2.4
		c5.9,1.3,13.6,3.9,22.9,7.6c18.8,7.6,34.2,9.5,46.3,5.3v-5.3c-7.5,0-16-1.6-25.7-4.5l-25.7-8.7l-3.6-5.3c-1-2.1-1.5-3.9-1.5-5.3
		c2.3-4.5,6.4-8.7,12.9-12.9l17-10c6.2-3.9,10-7.6,11.8-11c2.1-4.7,1-10-3.1-16C256.4,36.4,251.8,33.7,245.3,32.2L245.3,32.2
		L245.3,32.2z M242,55.5c-3.3,4.2-8,8.7-14.2,13.7c-6.2,5.3-11.8,9.2-17.5,12.3c-5.9,3.2-10.5,4.7-13.4,3.9c0-7.4,0.5-12.9,1.8-16.5
		c1.8-5,5.1-9.2,10.6-12.1c5.7-3.2,11.6-5.8,17.5-8.1c9.3-3.4,15.4-3.9,18.3-1.6C246.6,48.4,245.6,51.1,242,55.5L242,55.5z"/>
	<path id="path45-6-7" inkscape:connector-curvature="0" class="st5" d="M227.8,32.2c-6.4,5-12.4,8.1-18,9.7
		c-7.2,1.8-13.4,0.3-18-4.5 M191.8,37.4l-2.6,10.5 M189.2,47.9c-3.3,13.1-7.7,32.6-12.9,57.8c-5.1,25.5-9.3,44.7-12.9,57.8
		c-2.1,6.3-1,15,2.6,26.3 M166.1,189.7l1.3-22.3 M167.4,167.4c0.8-9.2,1.3-16.6,2.3-22.3c2.6-16.5,8.2-28.9,17-36.8
		c4.6-3.4,11.6-4.2,20.8-2.4c5.9,1.3,13.6,3.9,22.9,7.6c18.8,7.6,34.2,9.5,46.3,5.3 M276.7,118.8v-5.3 M276.7,113.6
		c-7.5,0-16-1.6-25.7-4.5 M251,109.1l-25.7-8.7l-3.6-5.3 M221.7,95.2c-1-2.1-1.5-3.9-1.5-5.3c2.3-4.5,6.4-8.7,12.9-12.9 M233,77.1
		l17-10 M250,67.1c6.2-3.9,10-7.6,11.8-11c2.1-4.7,1-10-3.1-16c-2.3-3.7-6.9-6.3-13.4-7.9c-6.2-1.3-12.1-1.3-17.5,0"/>
	<path id="path47-1-8" inkscape:connector-curvature="0" class="st4" d="M60.9,21.3c6.9-2.6,13.6-4.2,20.3-5.5
		c1.5,0,3.3-1.3,4.9-3.9c1.8-2.6,1-3.9-2.6-3.9C75,5.3,66,5.5,56.3,8.4c-8.8,2.6-16,6.8-21.4,12.6c-5.1,2.9-8.8,9.5-11.1,19.2
		L21,53.1c-1.3,5-2.6,9.2-4.1,12.6L11,73.8C8.7,77.2,7.9,80.6,9.2,84c1.5,1.6,2.6,4.2,2.6,7.9c1,7.1,1.3,15,0.8,23.6
		c-0.3,5.8-1.3,13.7-2.6,23.9l-3.1,24.4c-0.8,9.2-1,17.6-0.5,25.2l6.9-47.3c2.6-18.9,5.7-34.7,8.8-47.3c0-2.4,1.8-4.7,5.7-7.1
		c3.3-1.8,6.7-3.2,9.8-3.4c4.9-0.8,10.3-2.1,16-3.9l14.9-6.3c5.9-2.6,10.8-4.5,14.7-5.8l4.4-1.1l-49.9,3.9c-2.6,0-4.9-1-7.2-3.4
		c-2.1-2.1-3.1-4.5-3.1-7.1c3.3-14.2,8.5-24.7,15.4-31.5L60.9,21.3L60.9,21.3z"/>
	<path id="path49-4-8" inkscape:connector-curvature="0" class="st5" d="M87.4,67l-49.9,3.9 M37.5,70.9c-2.6,0-4.9-1-7.2-3.4
		c-2.1-2.1-3.1-4.5-3.1-7.1c3.3-14.2,8.5-24.7,15.4-31.5 M42.6,28.9l18.3-7.6 M60.9,21.3c6.9-2.6,13.6-4.2,20.3-5.5
		c1.5,0,3.3-1.3,4.9-3.9c1.8-2.6,1-3.9-2.6-3.9C75,5.3,66,5.5,56.3,8.4c-8.8,2.6-16,6.8-21.4,12.6c-5.1,2.9-8.8,9.5-11.1,19.2
		 M23.8,40.2L21,53.1 M21,53.1c-1.3,5-2.6,9.2-4.1,12.6 M16.9,65.7L11,73.8 M11,73.8C8.7,77.2,7.9,80.6,9.2,84
		c1.5,1.6,2.6,4.2,2.6,7.9c1,7.1,1.3,15,0.8,23.6c-0.3,5.8-1.3,13.7-2.6,23.9 M9.9,139.5l-3.1,24.4 M6.8,163.9
		c-0.8,9.2-1,17.6-0.5,25.2 M6.3,189.1l6.9-47.3 M13.3,141.8c2.6-18.9,5.7-34.7,8.8-47.3c0-2.4,1.8-4.7,5.7-7.1
		c3.3-1.8,6.7-3.2,9.8-3.4c4.9-0.8,10.3-2.1,16-3.9 M53.4,80.1l14.9-6.3 M68.4,73.8c5.9-2.6,10.8-4.5,14.7-5.8 M83,68l4.4-1.1
		 M99,65.7L87.4,67"/>
</g>
<g>
	<path class="st6" d="M391.4,248.8h-25.1v-6.5H424v6.5h-25.1v64.9h-7.6V248.8z"/>
	<path class="st6" d="M508.4,313.7l-16.3-23c-1.8,0.2-3.7,0.3-5.7,0.3h-19.2v22.7h-7.6v-71.5h26.8c18.2,0,29.2,9.2,29.2,24.5
		c0,11.2-5.9,19.1-16.3,22.5l17.5,24.5H508.4z M508,266.8c0-11.4-7.6-18-21.9-18h-19v35.8h19C500.4,284.6,508,278,508,266.8z"/>
	<path class="st6" d="M556.9,242.3h7.6v71.5h-7.6V242.3z"/>
	<path class="st6" d="M669.8,242.3l-31.7,71.5h-7.5L599,242.3h8.2l27.4,62.1l27.6-62.1H669.8z"/>
	<path class="st6" d="M703.6,242.3h7.6v71.5h-7.6V242.3z"/>
	<path class="st6" d="M802.7,294.7h-39.8l-8.6,19.1h-7.9l32.7-71.5h7.5l32.7,71.5h-8L802.7,294.7z M800,288.5l-17.2-38.4l-17.2,38.4
		H800z"/>
</g>
</svg>
